<svg width="57" height="56" viewBox="0 0 57 56" fill="none" xmlns="http://www.w3.org/2000/svg">
<path d="M28.0632 51.5404C41.0746 51.5404 51.6224 40.9926 51.6224 27.9811C51.6224 14.9697 41.0746 4.42188 28.0632 4.42188C15.0518 4.42188 4.50391 14.9697 4.50391 27.9811C4.50391 40.9926 15.0518 51.5404 28.0632 51.5404Z" fill="url(#paint0_linear_4808_1870)"/>
<path d="M28.0629 47.9476C39.0894 47.9476 48.0282 39.0089 48.0282 27.9823C48.0282 16.9558 39.0894 8.01709 28.0629 8.01709C17.0364 8.01709 8.09766 16.9558 8.09766 27.9823C8.09766 39.0089 17.0364 47.9476 28.0629 47.9476Z" fill="url(#paint1_linear_4808_1870)"/>
<path d="M28.7606 41.27H27.3566C27.2931 41.27 27.2322 41.2952 27.1873 41.3401C27.1424 41.385 27.1172 41.4459 27.1172 41.5094V46.249C27.1172 46.3813 27.2244 46.4884 27.3566 46.4884H28.7606C28.8241 46.4884 28.885 46.4632 28.9299 46.4183C28.9748 46.3734 29 46.3125 29 46.249V41.5094C29 41.446 28.9747 41.3851 28.9298 41.3402C28.885 41.2953 28.8241 41.27 28.7606 41.27Z" fill="#A2AEE6"/>
<path d="M28.7633 9.47461H27.3594C27.2959 9.47461 27.235 9.49983 27.1901 9.54473C27.1452 9.58963 27.12 9.65053 27.12 9.71403V14.4536C27.12 14.5859 27.2272 14.693 27.3594 14.693H28.7633C28.8268 14.693 28.8877 14.6678 28.9326 14.6229C28.9775 14.578 29.0028 14.5171 29.0028 14.4536V9.71403C29.0027 9.65054 28.9775 9.58966 28.9326 9.54476C28.8877 9.49987 28.8268 9.47464 28.7633 9.47461ZM14.7732 28.6833V27.2793C14.7732 27.2158 14.748 27.1549 14.7031 27.11C14.6582 27.0651 14.5973 27.0399 14.5338 27.0399H9.79411C9.73061 27.0399 9.66971 27.0651 9.62481 27.11C9.57991 27.1549 9.55469 27.2158 9.55469 27.2793V28.6833C9.55469 28.8156 9.66193 28.9227 9.79411 28.9227H14.5337C14.5972 28.9227 14.6581 28.8975 14.703 28.8526C14.7479 28.8077 14.7732 28.7468 14.7732 28.6833Z" fill="#8795DE"/>
<path d="M46.3262 27.0403H41.5867C41.5232 27.0403 41.4623 27.0656 41.4174 27.1105C41.3725 27.1554 41.3473 27.2162 41.3472 27.2797V28.6837C41.3472 28.816 41.4545 28.9231 41.5867 28.9231H46.3262C46.3897 28.9231 46.4506 28.8979 46.4955 28.853C46.5404 28.8081 46.5656 28.7472 46.5656 28.6837V27.2797C46.5656 27.2162 46.5404 27.1554 46.4955 27.1105C46.4506 27.0656 46.3897 27.0403 46.3262 27.0403ZM18.1664 36.8815C18.1215 36.8366 18.0606 36.8114 17.9971 36.8114C17.9336 36.8114 17.8727 36.8366 17.8278 36.8815L14.4764 40.2329C14.4315 40.2778 14.4063 40.3387 14.4062 40.4022C14.4063 40.4657 14.4315 40.5266 14.4764 40.5715L15.4691 41.5642C15.514 41.6091 15.5749 41.6343 15.6384 41.6343C15.7019 41.6343 15.7628 41.6091 15.8077 41.5642L19.1591 38.2128C19.204 38.1679 19.2292 38.107 19.2292 38.0435C19.2292 37.98 19.204 37.9191 19.1591 37.8742L18.1664 36.8815ZM37.9516 19.082C37.9965 19.1268 38.0574 19.1521 38.1209 19.1521C38.1844 19.1521 38.2453 19.1268 38.2902 19.082L41.6416 15.7306C41.6865 15.6856 41.7117 15.6247 41.7117 15.5612C41.7117 15.4977 41.6865 15.4368 41.6416 15.3919L40.6489 14.3992C40.604 14.3543 40.5431 14.3291 40.4796 14.3291C40.4161 14.3291 40.3552 14.3543 40.3103 14.3992L36.9588 17.7506C36.914 17.7955 36.8887 17.8564 36.8887 17.9199C36.8887 17.9834 36.914 18.0443 36.9588 18.0892L37.9516 19.082Z" fill="#A2AEE6"/>
<path d="M15.8077 14.3997C15.7628 14.3548 15.7019 14.3296 15.6384 14.3296C15.5749 14.3296 15.514 14.3548 15.4691 14.3997L14.4764 15.3924C14.4315 15.4373 14.4063 15.4982 14.4062 15.5617C14.4062 15.6252 14.4315 15.6861 14.4764 15.731L17.8278 19.0825C17.8727 19.1273 17.9336 19.1526 17.9971 19.1526C18.0606 19.1526 18.1215 19.1273 18.1664 19.0825L19.1591 18.0897C19.204 18.0448 19.2292 17.9839 19.2292 17.9204C19.2292 17.8569 19.204 17.796 19.1591 17.7511L15.8077 14.3997Z" fill="#8795DE"/>
<path d="M38.2882 36.8816C38.2433 36.8367 38.1824 36.8115 38.1189 36.8115C38.0554 36.8115 37.9945 36.8367 37.9495 36.8816L36.9568 37.8743C36.9119 37.9193 36.8867 37.9802 36.8867 38.0437C36.8867 38.1072 36.9119 38.1681 36.9568 38.213L40.3082 41.5644C40.3531 41.6093 40.414 41.6345 40.4775 41.6345C40.541 41.6345 40.6019 41.6093 40.6469 41.5644L41.6396 40.5717C41.6845 40.5267 41.7097 40.4658 41.7097 40.4023C41.7097 40.3388 41.6845 40.2779 41.6396 40.233L38.2882 36.8816Z" fill="#A2AEE6"/>
<path d="M27.6293 23.5613C27.6293 20.2973 24.7793 18.519 21.9538 18.519C19.1769 18.519 16.4487 20.2241 16.4487 23.1959C16.4487 24.7305 17.1795 25.1689 18.1538 25.1689C19.3961 25.1689 20.1512 24.4869 20.1512 23.7805C20.1512 22.4408 21.0037 21.9536 21.978 21.9536C23.3421 21.9536 23.8293 22.9036 23.8293 23.6831C23.8293 26.7766 16.1562 28.9689 16.1562 32.7932V35.156C16.1562 35.8624 17.1306 36.3251 17.8126 36.3251H26.4843C27.0932 36.3251 27.6291 35.5213 27.6291 34.6444C27.6291 33.7675 27.0932 33.0124 26.4843 33.0124H20.1025V32.7932C20.1025 30.5765 27.6293 28.8471 27.6293 23.5613Z" fill="url(#paint2_linear_4808_1870)"/>
<path d="M39.4621 29.0663H38.4146V27.3612C38.4146 26.5574 37.4648 26.2163 36.5148 26.2163C35.5648 26.2163 34.6148 26.5574 34.6148 27.3612V29.0663H32.5201L36.8316 20.419C36.9046 20.2485 36.9533 20.1023 36.9533 19.9562C36.9533 19.0793 35.7111 18.519 35.0535 18.519C34.4444 18.519 33.8355 18.787 33.4702 19.4934L27.8434 30.5278C27.6972 30.7958 27.6484 31.0637 27.6484 31.2586C27.6484 32.1111 28.2087 32.5739 28.9151 32.5739H34.6149V35.156C34.6149 35.9354 35.5649 36.3251 36.5149 36.3251C37.4649 36.3251 38.4148 35.9354 38.4148 35.156V32.5739H39.4622C40.0467 32.5739 40.6314 31.697 40.6314 30.8201C40.6313 29.9432 40.2415 29.0663 39.4621 29.0663Z" fill="url(#paint3_linear_4808_1870)"/>
<path d="M47.8734 8.16959C42.9313 3.22851 36.4684 0.360008 29.541 0.00192606C28.7375 -0.0396067 28.0611 0.5958 28.0611 1.40041C28.0611 2.14273 28.6403 2.7599 29.3817 2.7978C35.6216 3.11754 41.4419 5.69982 45.893 10.15C50.6556 14.9137 53.2789 21.2457 53.2789 27.9819C53.2789 34.7181 50.6556 41.0501 45.893 45.8138C41.1293 50.5765 34.7973 53.1997 28.0611 53.1997C21.3249 53.1997 14.9929 50.5765 10.2291 45.8138C5.4665 41.0501 2.84324 34.7181 2.84324 27.9819C2.84324 21.2703 5.44749 14.9607 10.1776 10.2026L13.0538 13.0778C13.8517 13.8757 15.2168 13.4659 15.4433 12.3603L17.4568 2.52916C17.6607 1.53336 16.7807 0.653155 15.7849 0.857192L5.95369 2.87087C4.84824 3.09732 4.43829 4.46241 5.23632 5.26032L8.19733 8.22233C2.93839 13.5081 0.0429688 20.5232 0.0429688 27.9819C0.0429688 35.4653 2.95751 42.5018 8.24876 47.7942C13.5412 53.0856 20.5777 56 28.0611 56C35.5444 56 42.5809 53.0855 47.8734 47.7942C53.1646 42.5018 56.0792 35.4653 56.0792 27.9819C56.0792 20.4985 53.1646 13.4622 47.8734 8.16959Z" fill="url(#paint4_linear_4808_1870)"/>
<path d="M17.3534 3.02588L15.4413 12.3596C15.2151 13.4652 13.8497 13.8751 13.0522 13.0777L10.1758 10.2024L17.3534 3.02588Z" fill="url(#paint5_linear_4808_1870)"/>
<path d="M15.5051 0.915039L8.1975 8.2226L5.23604 5.26103C4.43857 4.46235 4.84851 3.09704 5.95407 2.8707L15.5051 0.915039Z" fill="url(#paint6_linear_4808_1870)"/>
<path d="M6.61328 37.7271C10.3202 45.8757 18.5324 51.5415 28.0683 51.5415C37.6043 51.5415 45.8164 45.8757 49.5234 37.7271H6.61328Z" fill="url(#paint7_linear_4808_1870)"/>
<defs>
<linearGradient id="paint0_linear_4808_1870" x1="18.7729" y1="18.6909" x2="55.9692" y2="55.8872" gradientUnits="userSpaceOnUse">
<stop stop-color="#EAF6FF"/>
<stop offset="1" stop-color="#B9C5FF"/>
</linearGradient>
<linearGradient id="paint1_linear_4808_1870" x1="35.9123" y1="35.8317" x2="-4.34644" y2="-4.42701" gradientUnits="userSpaceOnUse">
<stop stop-color="#EAF6FF"/>
<stop offset="1" stop-color="#D6DDFF"/>
</linearGradient>
<linearGradient id="paint2_linear_4808_1870" x1="21.8928" y1="28.9902" x2="21.8928" y2="36.3837" gradientUnits="userSpaceOnUse">
<stop stop-color="#FD4755"/>
<stop offset="1" stop-color="#AC2538"/>
</linearGradient>
<linearGradient id="paint3_linear_4808_1870" x1="34.1397" y1="28.9902" x2="34.1397" y2="36.3837" gradientUnits="userSpaceOnUse">
<stop stop-color="#FD4755"/>
<stop offset="1" stop-color="#AC2538"/>
</linearGradient>
<linearGradient id="paint4_linear_4808_1870" x1="12.6085" y1="19.4899" x2="59.7112" y2="45.3752" gradientUnits="userSpaceOnUse">
<stop stop-color="#FD4755"/>
<stop offset="1" stop-color="#AC2538"/>
</linearGradient>
<linearGradient id="paint5_linear_4808_1870" x1="13.7914" y1="10.4656" x2="10.0324" y2="14.2246" gradientUnits="userSpaceOnUse">
<stop stop-color="#972437" stop-opacity="0"/>
<stop offset="1" stop-color="#972437"/>
</linearGradient>
<linearGradient id="paint6_linear_4808_1870" x1="7.89128" y1="4.56376" x2="4.13224" y2="8.3228" gradientUnits="userSpaceOnUse">
<stop stop-color="#972437" stop-opacity="0"/>
<stop offset="1" stop-color="#972437"/>
</linearGradient>
<linearGradient id="paint7_linear_4808_1870" x1="28.0683" y1="41.0874" x2="28.0683" y2="51.2901" gradientUnits="userSpaceOnUse">
<stop stop-color="#E3E8FF" stop-opacity="0"/>
<stop offset="0.468" stop-color="#CBD4FF" stop-opacity="0.468"/>
<stop offset="1" stop-color="#ADBCFF"/>
</linearGradient>
</defs>
</svg>
