<svg width="75" height="75" viewBox="0 0 75 75" fill="none" xmlns="http://www.w3.org/2000/svg">
<rect width="75" height="75" rx="37.5" fill="#FFC63C"/>
<path d="M36.1983 43.5315C36.1195 43.6186 36.046 43.7105 35.9783 43.8065C35.9089 43.9087 35.8534 44.0197 35.8133 44.1365C35.7604 44.2404 35.7234 44.3516 35.7033 44.4665C35.6943 44.5886 35.6943 44.7111 35.7033 44.8332C35.6971 45.0737 35.7473 45.3123 35.85 45.5298C35.9323 45.7573 36.0637 45.964 36.2348 46.135C36.4058 46.3061 36.6125 46.4375 36.84 46.5198C37.0594 46.6168 37.2967 46.6669 37.5366 46.6669C37.7766 46.6669 38.0138 46.6168 38.2333 46.5198C38.4608 46.4375 38.6674 46.3061 38.8385 46.135C39.0096 45.964 39.141 45.7573 39.2233 45.5298C39.3047 45.3069 39.3421 45.0703 39.3333 44.8332C39.3347 44.5919 39.2884 44.3527 39.1972 44.1293C39.106 43.906 38.9715 43.7028 38.8016 43.5315C38.6312 43.3597 38.4284 43.2233 38.205 43.1302C37.9816 43.0371 37.742 42.9892 37.5 42.9892C37.2579 42.9892 37.0183 43.0371 36.7949 43.1302C36.5715 43.2233 36.3687 43.3597 36.1983 43.5315ZM37.5 19.1665C33.874 19.1665 30.3294 20.2417 27.3145 22.2562C24.2996 24.2707 21.9498 27.134 20.5622 30.484C19.1746 33.834 18.8115 37.5202 19.5189 41.0765C20.2263 44.6328 21.9724 47.8995 24.5363 50.4635C27.1003 53.0274 30.367 54.7735 33.9233 55.4809C37.4796 56.1883 41.1659 55.8252 44.5158 54.4376C47.8658 53.05 50.7291 50.7002 52.7436 47.6853C54.7581 44.6704 55.8333 41.1258 55.8333 37.4998C55.8333 35.0923 55.3591 32.7083 54.4378 30.484C53.5164 28.2597 52.166 26.2386 50.4636 24.5362C48.7612 22.8338 46.7401 21.4834 44.5158 20.562C42.2915 19.6407 39.9075 19.1665 37.5 19.1665V19.1665ZM37.5 52.1665C34.5992 52.1665 31.7635 51.3063 29.3516 49.6947C26.9397 48.0831 25.0598 45.7925 23.9497 43.1125C22.8396 40.4325 22.5492 37.4836 23.1151 34.6385C23.681 31.7935 25.0779 29.1801 27.1291 27.1289C29.1802 25.0778 31.7936 23.6809 34.6386 23.115C37.4837 22.5491 40.4327 22.8395 43.1127 23.9496C45.7926 25.0597 48.0833 26.9396 49.6949 29.3515C51.3064 31.7634 52.1666 34.599 52.1666 37.4998C52.1666 41.3897 50.6214 45.1202 47.8709 47.8707C45.1203 50.6213 41.3898 52.1665 37.5 52.1665V52.1665ZM37.5 28.3332C36.5339 28.3326 35.5847 28.5864 34.748 29.0691C33.9112 29.5519 33.2163 30.2465 32.7333 31.0832C32.6007 31.2918 32.5116 31.5252 32.4715 31.7692C32.4313 32.0131 32.441 32.2627 32.4998 32.5029C32.5586 32.743 32.6654 32.9688 32.8138 33.1666C32.9621 33.3644 33.1489 33.5302 33.363 33.654C33.5771 33.7777 33.814 33.8568 34.0594 33.8867C34.3049 33.9165 34.5538 33.8963 34.7913 33.8274C35.0288 33.7586 35.2498 33.6423 35.4412 33.4858C35.6326 33.3292 35.7904 33.1356 35.905 32.9165C36.0665 32.6367 36.2991 32.4046 36.5792 32.2436C36.8593 32.0827 37.1769 31.9986 37.5 31.9998C37.9862 31.9998 38.4525 32.193 38.7963 32.5368C39.1401 32.8806 39.3333 33.3469 39.3333 33.8332C39.3333 34.3194 39.1401 34.7857 38.7963 35.1295C38.4525 35.4733 37.9862 35.6665 37.5 35.6665C37.0137 35.6665 36.5474 35.8597 36.2036 36.2035C35.8598 36.5473 35.6666 37.0136 35.6666 37.4998V39.3332C35.6666 39.8194 35.8598 40.2857 36.2036 40.6295C36.5474 40.9733 37.0137 41.1665 37.5 41.1665C37.9862 41.1665 38.4525 40.9733 38.7963 40.6295C39.1401 40.2857 39.3333 39.8194 39.3333 39.3332V39.0032C40.5458 38.5632 41.5651 37.7111 42.213 36.5958C42.861 35.4804 43.0963 34.1729 42.8779 32.9016C42.6594 31.6304 42.0012 30.4764 41.0181 29.6413C40.0351 28.8062 38.7898 28.3432 37.5 28.3332V28.3332Z" fill="white"/>
</svg>
