<svg width="75" height="75" viewBox="0 0 75 75" fill="none" xmlns="http://www.w3.org/2000/svg">
<rect width="75" height="75" rx="37.5" fill="#21C6FB"/>
<g clip-path="url(#clip0_4946_30009)">
<path d="M21.902 30.2857L24.2596 50.3332H50.7403L53.098 30.2857L45.7463 35.1862L37.5 23.6417L29.2536 35.1862L21.902 30.2857ZM20.6351 25.0332L28.3333 30.1665L36.0076 19.4232C36.1772 19.1855 36.4011 18.9918 36.6607 18.8582C36.9203 18.7245 37.208 18.6548 37.5 18.6548C37.7919 18.6548 38.0797 18.7245 38.3392 18.8582C38.5988 18.9918 38.8227 19.1855 38.9923 19.4232L46.6666 30.1665L54.3666 25.0332C54.658 24.8393 54.9989 24.7329 55.3488 24.7265C55.6988 24.7202 56.0432 24.8141 56.3415 24.9973C56.6398 25.1805 56.8794 25.4452 57.032 25.7602C57.1846 26.0752 57.2439 26.4273 57.2028 26.7749L54.1906 52.381C54.1381 52.827 53.9237 53.2382 53.5881 53.5366C53.2526 53.8349 52.8192 53.9998 52.3701 53.9999H22.6298C22.1807 53.9998 21.7473 53.8349 21.4118 53.5366C21.0762 53.2382 20.8618 52.827 20.8093 52.381L17.7971 26.773C17.7564 26.4256 17.816 26.0737 17.9688 25.759C18.1215 25.4443 18.3612 25.1799 18.6594 24.997C18.9575 24.8141 19.3018 24.7203 19.6516 24.7267C20.0014 24.7331 20.342 24.8395 20.6333 25.0332H20.6351ZM37.5 42.9999C36.5275 42.9999 35.5949 42.6136 34.9072 41.9259C34.2196 41.2383 33.8333 40.3057 33.8333 39.3332C33.8333 38.3607 34.2196 37.4281 34.9072 36.7405C35.5949 36.0528 36.5275 35.6665 37.5 35.6665C38.4724 35.6665 39.405 36.0528 40.0927 36.7405C40.7803 37.4281 41.1666 38.3607 41.1666 39.3332C41.1666 40.3057 40.7803 41.2383 40.0927 41.9259C39.405 42.6136 38.4724 42.9999 37.5 42.9999Z" fill="white"/>
</g>
<defs>
<clipPath id="clip0_4946_30009">
<rect width="44" height="44" fill="white" transform="translate(15.5 15.5)"/>
</clipPath>
</defs>
</svg>
