<svg width="75" height="75" viewBox="0 0 75 75" fill="none" xmlns="http://www.w3.org/2000/svg">
<rect width="75" height="75" rx="37.5" fill="#7F58FE"/>
<g clip-path="url(#clip0_4946_30014)">
<path d="M43 19.1665C44.2876 19.1664 45.5524 19.5052 46.6675 20.1489C47.7825 20.7927 48.7084 21.7186 49.3521 22.8337C49.9957 23.9488 50.3345 25.2137 50.3342 26.5012C50.334 27.7887 49.9948 29.0535 49.3507 30.1683L57.6667 30.1665V33.8332H54V52.1665C54 52.6527 53.8069 53.1191 53.4631 53.4629C53.1193 53.8067 52.6529 53.9998 52.1667 53.9998H22.8334C22.3471 53.9998 21.8808 53.8067 21.537 53.4629C21.1932 53.1191 21 52.6527 21 52.1665V33.8332H17.3334V30.1665L25.6494 30.1683C24.7398 28.5933 24.448 26.7365 24.8306 24.9583C25.2132 23.1802 26.2429 21.6077 27.7198 20.5462C29.1967 19.4847 31.0154 19.0099 32.8227 19.214C34.6301 19.4181 36.2971 20.2865 37.5 21.6507C38.1868 20.8685 39.0328 20.2423 39.9814 19.8138C40.93 19.3854 41.9592 19.1647 43 19.1665ZM35.6667 33.8332H24.6667V50.3332H35.6667V33.8332ZM50.3334 33.8332H39.3334V50.3332H50.3334V33.8332ZM32 22.8332C31.0486 22.8289 30.1327 23.1947 29.4459 23.8532C28.7592 24.5117 28.3552 25.4114 28.3195 26.3622C28.2838 27.313 28.6191 28.2405 29.2546 28.9487C29.8901 29.6568 30.7759 30.0902 31.725 30.1573L32 30.1665H35.6667V26.4998C35.6667 25.6236 35.353 24.7764 34.7823 24.1115C34.2116 23.4466 33.4216 23.0081 32.5555 22.8753L32.2732 22.8423L32 22.8332ZM43 22.8332C42.075 22.8329 41.184 23.1823 40.5057 23.8113C39.8274 24.4403 39.4119 25.3024 39.3425 26.2248L39.3334 26.4998V30.1665H43C43.9251 30.1668 44.8161 29.8174 45.4944 29.1884C46.1727 28.5594 46.5882 27.6973 46.6575 26.7748L46.6667 26.4998C46.6667 25.5274 46.2804 24.5948 45.5928 23.9071C44.9051 23.2195 43.9725 22.8332 43 22.8332Z" fill="white"/>
</g>
<defs>
<clipPath id="clip0_4946_30014">
<rect width="44" height="44" fill="white" transform="translate(15.5 15.5)"/>
</clipPath>
</defs>
</svg>
