<svg width="75" height="75" viewBox="0 0 75 75" fill="none" xmlns="http://www.w3.org/2000/svg">
<rect width="75" height="75" rx="37.5" fill="#0F6AFF"/>
<g clip-path="url(#clip0_4946_30008)">
<path d="M55.8333 54H19.1666V50.3333H21V22.8333C21 22.3471 21.1931 21.8808 21.5369 21.537C21.8807 21.1932 22.3471 21 22.8333 21H48.5C48.9862 21 49.4525 21.1932 49.7963 21.537C50.1401 21.8808 50.3333 22.3471 50.3333 22.8333V32H54V50.3333H55.8333V54ZM46.6666 50.3333H50.3333V35.6667H39.3333V50.3333H43V39.3333H46.6666V50.3333ZM46.6666 32V24.6667H24.6666V50.3333H35.6666V32H46.6666ZM28.3333 35.6667H32V39.3333H28.3333V35.6667ZM28.3333 43H32V46.6667H28.3333V43ZM28.3333 28.3333H32V32H28.3333V28.3333Z" fill="white"/>
</g>
<defs>
<clipPath id="clip0_4946_30008">
<rect width="44" height="44" fill="white" transform="translate(15.5 15.5)"/>
</clipPath>
</defs>
</svg>
