<svg xmlns="http://www.w3.org/2000/svg" width="15" height="15" viewBox="0 0 15 15">
  <g id="edit" transform="translate(0 -0.004)">
    <g id="Group_176" data-name="Group 176" transform="translate(0 1.076)">
      <g id="Group_175" data-name="Group 175">
        <path id="Path_981" data-name="Path 981" d="M12.319,40.565a.536.536,0,0,0-.536.536v5.357a.536.536,0,0,1-.536.536H1.607a.536.536,0,0,1-.536-.536V35.744a.536.536,0,0,1,.536-.536H8.034a.536.536,0,0,0,0-1.071H1.607A1.607,1.607,0,0,0,0,35.744V46.458a1.607,1.607,0,0,0,1.607,1.607h9.641a1.607,1.607,0,0,0,1.607-1.607V41.1A.536.536,0,0,0,12.319,40.565Z" transform="translate(0 -34.137)" fill="#fb1159"/>
      </g>
    </g>
    <g id="Group_178" data-name="Group 178" transform="translate(3.203 0.004)">
      <g id="Group_177" data-name="Group 177" transform="translate(0 0)">
        <path id="Path_982" data-name="Path 982" d="M113.6.605a2.053,2.053,0,0,0-2.9,0l-7.063,7.063a.542.542,0,0,0-.129.21L102.436,11.1a.536.536,0,0,0,.508.706.545.545,0,0,0,.169-.027l3.217-1.072a.536.536,0,0,0,.21-.13L113.6,3.508A2.053,2.053,0,0,0,113.6.605Zm-.758,2.145-6.971,6.971-2.083.7.693-2.08,6.974-6.971a.98.98,0,1,1,1.387,1.385Z" transform="translate(-102.409 -0.004)" fill="#fb1159"/>
      </g>
    </g>
  </g>
</svg>
