<svg xmlns="http://www.w3.org/2000/svg" width="22.486" height="15" viewBox="0 0 22.486 15">
  <g id="reply" transform="translate(0 -85.226)">
    <g id="Group_180" data-name="Group 180" transform="translate(0 85.226)">
      <g id="Group_179" data-name="Group 179" transform="translate(0 0)">
        <path id="Path_987" data-name="Path 987" d="M90.819,92a11.4,11.4,0,0,0-7.355-2.844V85.881a.469.469,0,0,0-.768-.361l-7.964,6.559a.469.469,0,0,0-.066.661.873.873,0,0,0,.066.066L82.7,99.364a.469.469,0,0,0,.661-.066.462.462,0,0,0,.108-.3V95.6c1.307-.356,6.32-1.26,9.425,4.558a.461.461,0,0,0,.412.248.468.468,0,0,0,.389-.206.477.477,0,0,0,.08-.276C93.766,96.534,92.773,93.873,90.819,92Zm-5.3,2.417a8.723,8.723,0,0,0-2.684.389.465.465,0,0,0-.309.44v2.755l-6.76-5.566,6.76-5.566v2.755a.465.465,0,0,0,.145.337.473.473,0,0,0,.347.131,10.828,10.828,0,0,1,7.163,2.591,8.806,8.806,0,0,1,2.548,5.453A8.7,8.7,0,0,0,85.521,94.421Z" transform="translate(-71.284 -85.404)" fill="#fb1159"/>
        <path id="Path_988" data-name="Path 988" d="M8.758,98.483c-.009,0-.014-.014-.023-.019L1.2,92.261l7.532-6.2a.468.468,0,1,0-.572-.74c-.009,0-.014.014-.023.019L.172,91.9a.469.469,0,0,0-.066.661.874.874,0,0,0,.066.066L8.14,99.185a.468.468,0,1,0,.619-.7Z" transform="translate(0 -85.226)" fill="#fb1159"/>
      </g>
    </g>
  </g>
</svg>
