<svg xmlns="http://www.w3.org/2000/svg" width="12.193" height="15" viewBox="0 0 12.193 15">
  <g id="trash" transform="translate(-48)">
    <path id="Path_983" data-name="Path 983" d="M59.02,1.875H56.441V1.406A1.408,1.408,0,0,0,55.034,0H53.158a1.408,1.408,0,0,0-1.407,1.406v.469H49.172A1.173,1.173,0,0,0,48,3.047V4.688a.469.469,0,0,0,.469.469h.256l.405,8.5A1.4,1.4,0,0,0,50.536,15h7.121a1.4,1.4,0,0,0,1.405-1.339l.405-8.5h.256a.469.469,0,0,0,.469-.469V3.047A1.173,1.173,0,0,0,59.02,1.875Zm-6.331-.469a.469.469,0,0,1,.469-.469h1.876a.469.469,0,0,1,.469.469v.469H52.689ZM48.938,3.047a.235.235,0,0,1,.234-.234H59.02a.235.235,0,0,1,.234.234V4.219H48.938Zm9.187,10.569a.468.468,0,0,1-.468.446H50.536a.468.468,0,0,1-.468-.446l-.4-8.46h8.864Z" fill="#fb1159"/>
    <path id="Path_984" data-name="Path 984" d="M240.469,215.034a.469.469,0,0,0,.469-.469v-6.1a.469.469,0,1,0-.938,0v6.1A.469.469,0,0,0,240.469,215.034Z" transform="translate(-186.373 -201.91)" fill="#fb1159"/>
    <path id="Path_985" data-name="Path 985" d="M320.469,215.034a.469.469,0,0,0,.469-.469v-6.1a.469.469,0,1,0-.938,0v6.1A.469.469,0,0,0,320.469,215.034Z" transform="translate(-264.028 -201.91)" fill="#fb1159"/>
    <path id="Path_986" data-name="Path 986" d="M160.469,215.034a.469.469,0,0,0,.469-.469v-6.1a.469.469,0,1,0-.938,0v6.1A.469.469,0,0,0,160.469,215.034Z" transform="translate(-108.717 -201.91)" fill="#fb1159"/>
  </g>
</svg>
