<svg width="32" height="28" viewBox="0 0 32 28" fill="none" xmlns="http://www.w3.org/2000/svg">
<g clip-path="url(#clip0_2_54)">
<path d="M30.5782 27.5756H1.43271C0.71431 27.326 0.262664 26.8467 0.124851 26.0879C0.0929625 25.9699 0.0511991 25.8549 0 25.7439L0 25.0639C0.186935 24.5649 0.448917 24.1052 0.977657 23.9244C1.27989 23.821 1.29899 23.6572 1.29831 23.4001C1.29285 18.3039 1.29217 13.2062 1.29626 8.10723C1.29626 7.08734 1.97851 6.40742 3.00188 6.40742C4.57923 6.40742 6.15589 6.39858 7.73324 6.41489C8.03002 6.41489 8.15623 6.34146 8.25107 6.04909C9.4832 2.25306 13.3242 -0.13688 17.2608 0.537608C20.5055 1.09379 22.6867 2.98534 23.7749 6.09261C23.8588 6.3333 23.9563 6.42033 24.2197 6.41829C25.7513 6.40402 27.285 6.45841 28.8139 6.39518C29.9444 6.34894 30.7549 7.13562 30.7324 8.32141C30.6785 11.2023 30.7153 14.0851 30.7153 16.9667C30.7153 19.1139 30.7187 21.2611 30.7106 23.4083C30.7106 23.6687 30.7447 23.8122 31.0346 23.9278C31.6677 24.1807 32.03 24.6981 31.9986 25.3835C31.9529 26.3701 31.6439 27.2261 30.5782 27.5756ZM24.1242 9.68194C23.6241 13.5956 20.1944 16.6063 16.3056 16.7205C14.4022 16.7777 12.6761 16.2541 11.1499 15.1241C9.314 13.7642 8.25652 11.9284 7.89698 9.68466H4.58468V21.5834H27.4262V9.68466L24.1242 9.68194ZM2.38308 23.7768H2.83268C5.66945 23.7768 8.50691 23.7965 11.3437 23.7639C12.1105 23.7551 12.7205 23.9597 13.2001 24.5472C13.4047 24.7967 13.664 24.8701 13.9812 24.8674C15.2413 24.8559 16.5015 24.8396 17.7602 24.8735C18.2807 24.8871 18.6764 24.7607 19.0107 24.3554C19.3621 23.9298 19.8383 23.7693 20.3984 23.7721C23.3375 23.7829 26.2767 23.7768 29.2158 23.7768H29.6094C29.6162 23.6844 29.6231 23.6408 29.6231 23.596C29.6231 18.453 29.6231 13.31 29.6231 8.16707C29.6231 7.70064 29.4075 7.49802 28.9244 7.49666C27.5968 7.49666 26.2691 7.49666 24.9415 7.49666H24.1146C24.144 7.87266 24.1699 8.21534 24.1985 8.58454C25.2799 8.58454 26.3442 8.58454 27.4085 8.58454C28.0839 8.58454 28.5342 9.03669 28.5342 9.7139C28.5342 13.6697 28.5342 17.626 28.5342 21.5827C28.5342 22.2361 28.0785 22.6917 27.4235 22.6917C19.8087 22.6917 12.1942 22.6917 4.57991 22.6917C3.92905 22.6917 3.47535 22.2314 3.47535 21.5759C3.47535 17.6201 3.47535 13.6638 3.47535 9.7071C3.47535 9.03397 3.92836 8.58658 4.6072 8.58454C5.56234 8.58454 6.51339 8.58454 7.46649 8.58454H7.81375C7.8424 8.19562 7.86696 7.86246 7.89357 7.49666H7.50469C6.07471 7.49666 4.64472 7.49666 3.21474 7.49666C2.54887 7.49666 2.38444 7.65644 2.38444 8.30849V23.7768H2.38308ZM16.0327 1.5269C12.2163 1.47455 8.98243 4.63961 8.92376 8.48119C8.86509 12.3466 12.0327 15.5912 15.9045 15.6327C17.7845 15.6526 19.5957 14.929 20.9412 13.6203C22.2867 12.3116 23.0567 10.5247 23.0824 8.65117C23.1335 4.77559 19.9734 1.57994 16.0327 1.5269ZM15.9857 26.4904H30.0188C30.5939 26.4904 31.0701 25.805 30.8791 25.2536C30.7617 24.9137 30.4861 24.86 30.1695 24.86C27.0367 24.86 23.9045 24.8715 20.7723 24.8511C20.2661 24.8511 19.8786 24.9647 19.5518 25.357C19.1909 25.7914 18.7071 25.9601 18.1341 25.9526C16.7832 25.9349 15.4324 25.92 14.0829 25.958C13.3549 25.9784 12.7696 25.7717 12.3125 25.2142C12.0846 24.9361 11.7994 24.8545 11.444 24.8559C8.27767 24.8661 5.11069 24.8613 1.9444 24.862C1.83063 24.8563 1.71659 24.8593 1.60327 24.8708C1.34266 24.9103 1.16664 25.0598 1.11069 25.3196C1.08016 25.4612 1.0819 25.6078 1.1158 25.7486C1.1497 25.8894 1.21489 26.0209 1.30656 26.1332C1.39823 26.2456 1.51404 26.336 1.64545 26.3979C1.77686 26.4597 1.92052 26.4913 2.06584 26.4904H15.9857Z" fill="white"/>
<path d="M16.0109 2.61297C19.358 2.61637 22.0017 5.28236 21.9969 8.648C21.9921 11.9184 19.2905 14.5538 15.9461 14.5504C12.6713 14.5504 10.0058 11.8573 10.0106 8.56709C10.0106 7.78301 10.1659 7.00664 10.4678 6.28256C10.7697 5.55849 11.2121 4.90096 11.7696 4.34773C12.3271 3.7945 12.9888 3.35646 13.7166 3.05876C14.4445 2.76107 15.2242 2.60957 16.0109 2.61297ZM16.5485 13.4177C17.4673 13.3195 18.338 12.9587 19.0558 12.3788C18.7719 12.1068 18.51 11.8552 18.2555 11.6009C17.9301 11.2752 17.9 10.97 18.16 10.717C18.4199 10.4641 18.7201 10.4994 19.0469 10.8353C19.2973 11.093 19.5245 11.3697 19.7926 11.6676C20.4066 10.8571 20.7641 10.065 20.8548 9.12259C20.5042 9.12259 20.1883 9.12667 19.8724 9.12259C19.4979 9.11647 19.2748 8.90909 19.2761 8.57865C19.2775 8.2482 19.5013 8.04559 19.8792 8.04015C20.1944 8.03607 20.5103 8.04015 20.8637 8.04015C20.7609 7.12215 20.3961 6.25281 19.8124 5.5353C19.5333 5.82426 19.2802 6.09488 19.0176 6.35665C18.7092 6.66261 18.4035 6.68777 18.1552 6.44028C17.9069 6.19279 17.9307 5.88886 18.2364 5.58153C18.4977 5.3184 18.7665 5.06343 19.0592 4.77854C18.2951 4.19448 17.4962 3.84772 16.5485 3.74845C16.5485 4.08229 16.5485 4.38486 16.5485 4.68811C16.5451 5.09266 16.35 5.3218 16.0089 5.32452C15.6677 5.32724 15.4631 5.09946 15.4631 4.69831C15.4631 4.38826 15.4631 4.07821 15.4631 3.73757C14.5079 3.87356 13.6981 4.18564 12.9449 4.79826C13.2662 5.10286 13.5623 5.36599 13.838 5.64884C14.0877 5.9045 14.0863 6.20434 13.8639 6.43348C13.6415 6.66261 13.3249 6.66941 13.0513 6.41036C12.758 6.13567 12.4755 5.84806 12.1726 5.54821C11.6029 6.31653 11.2379 7.10253 11.1588 8.03947C11.5108 8.03947 11.8158 8.03947 12.1207 8.03947C12.5021 8.04423 12.7273 8.24004 12.7348 8.56777C12.7423 8.91181 12.5137 9.11851 12.1146 9.12259C11.8015 9.12259 11.4876 9.12259 11.1431 9.12259C11.2686 10.0697 11.5927 10.8748 12.2013 11.6295C12.4803 11.3371 12.7252 11.0726 12.9804 10.8176C13.3024 10.4954 13.6162 10.4702 13.8673 10.734C14.1068 10.9863 14.072 11.278 13.7615 11.5928C13.4996 11.8532 13.2287 12.1054 12.9429 12.3774C13.7206 12.9689 14.5168 13.3205 15.4139 13.4034C15.4405 13.3572 15.4508 13.3477 15.4508 13.3354C15.4542 13.0417 15.4556 12.748 15.4597 12.4515C15.4651 12.0517 15.6691 11.826 16.0157 11.8328C16.3445 11.8389 16.5431 12.0633 16.5471 12.4447C16.5519 12.7622 16.5485 13.0757 16.5485 13.4177Z" fill="white"/>
<path d="M16.5485 7.58046C16.5485 7.86263 16.5246 8.14684 16.5547 8.42629C16.597 8.82472 16.4537 9.11709 16.1535 9.37138C15.9127 9.57536 15.7066 9.81946 15.4754 10.0343C15.2229 10.2682 14.9036 10.2709 14.6853 10.0574C14.467 9.84393 14.4588 9.53865 14.6853 9.26872C14.7046 9.24164 14.7275 9.21738 14.7535 9.19664C15.3873 8.77237 15.5552 8.17131 15.4617 7.44583C15.4187 7.11267 15.4487 6.76998 15.4563 6.43138C15.4638 6.09278 15.678 5.86976 15.998 5.86908C16.3179 5.8684 16.5342 6.0853 16.5438 6.43002C16.5547 6.81554 16.5485 7.19698 16.5485 7.58046Z" fill="white"/>
</g>
<defs>
<clipPath id="clip0_2_54">
<rect width="32" height="27.1515" fill="white" transform="translate(0 0.424194)"/>
</clipPath>
</defs>
</svg>
