<svg width="32" height="32" viewBox="0 0 32 32" fill="none" xmlns="http://www.w3.org/2000/svg">
<g clip-path="url(#clip0_4654_29504)">
<mask id="path-1-outside-1_4654_29504" maskUnits="userSpaceOnUse" x="4.49988" y="1.5" width="23" height="29" fill="black">
<rect fill="white" x="4.49988" y="1.5" width="23" height="29"/>
<path d="M16.9816 2.5H15.6545C15.6227 2.5164 15.5926 2.54391 15.559 2.54761C14.244 2.69786 13.1362 3.2285 12.1822 4.05805C12.0142 4.19747 11.823 4.31158 11.6158 4.39611C10.5843 4.83628 9.90855 5.56584 9.85243 6.59695C9.76855 8.14072 9.80615 9.69083 9.82409 11.2383C9.83392 12.0435 10.3205 12.5958 11.1507 12.8783C11.1998 12.8963 11.2444 12.9234 11.2815 12.9579C11.3187 12.9924 11.3476 13.0336 11.3664 13.0789C11.6812 14.2343 12.391 15.1231 13.4763 15.7722C13.5568 15.8204 13.588 15.9357 13.6649 16.0558C12.7422 16.2098 11.8975 16.3648 11.0477 16.4891C10.1978 16.6134 9.39771 16.8256 8.77232 17.4028C8.57794 17.5816 8.40843 17.7832 8.2233 17.9789L6.93665 17.5319V20.3385C6.32457 20.3998 5.88142 20.6559 5.63959 21.1611C5.5719 21.3029 5.54587 21.4611 5.50017 21.6119V23.4604C5.52135 23.5088 5.53894 23.5585 5.55281 23.609C5.66852 24.1841 6.07349 24.5672 6.6983 24.6867C6.77929 24.7021 6.85855 24.7227 6.94706 24.7428C6.94706 25.1994 6.95806 25.639 6.94186 26.0781C6.93549 26.2575 6.99971 26.3426 7.18021 26.4045C10.057 27.4238 12.9333 28.4449 15.809 29.4677C15.9312 29.5069 16.0645 29.5069 16.1867 29.4677C19.0736 28.4474 21.9589 27.4231 24.8427 26.395C25.0012 26.3384 25.0625 26.2675 25.0585 26.1083C25.0457 25.6522 25.0538 25.1957 25.0538 24.7386C25.121 24.7227 25.1667 24.7105 25.2129 24.7015C25.9853 24.5566 26.4088 24.172 26.4643 23.4588C26.5117 22.8446 26.5117 22.2282 26.4643 21.614C26.4064 20.8834 25.9564 20.4829 25.1609 20.3533C25.1229 20.3447 25.0856 20.3339 25.0492 20.321V17.5382L23.7626 17.9868C23.7047 17.9165 23.6503 17.8551 23.5994 17.7927C23.1216 17.2107 22.5054 16.8092 21.7279 16.6415C21.2616 16.541 20.7884 16.4701 20.3174 16.3896C19.6811 16.2807 19.0389 16.1743 18.4164 16.0722C18.3163 15.841 18.5009 15.786 18.6293 15.7072C19.6125 15.117 20.3176 14.2107 20.605 13.1677C20.6536 12.9995 20.7207 12.9032 20.9151 12.8466C21.2696 12.742 21.5803 12.5401 21.8049 12.2684C22.0296 11.9966 22.1572 11.6682 22.1705 11.3277C22.1948 10.5341 22.1936 9.74426 22.1849 8.95281C22.178 8.32959 22.2092 7.69737 22.1062 7.08579C21.7591 5.02938 20.4806 3.62317 18.384 2.84811C17.9379 2.68358 17.4502 2.61375 16.9816 2.5ZM16.4991 28.4149C16.4899 28.3223 16.4806 28.2721 16.4806 28.2218C16.4806 26.058 16.4806 23.8942 16.4748 21.7299C16.4748 21.5458 16.5744 21.4966 16.7282 21.4421C19.0863 20.6051 21.4436 19.7662 23.8002 18.9254C23.8835 18.8957 23.9737 18.8767 24.0808 18.8455C24.0808 19.3899 24.086 19.8994 24.0744 20.4083C24.0688 20.448 24.0537 20.4862 24.0301 20.5199C24.0065 20.5537 23.975 20.5822 23.9379 20.6035C22.2538 21.4167 22.2185 23.6191 23.9379 24.4656C23.9749 24.4869 24.0064 24.5153 24.0303 24.5488C24.0542 24.5823 24.0698 24.6202 24.0761 24.6597C24.09 25.0105 24.0825 25.3618 24.0825 25.7178L16.4991 28.4149ZM7.92015 18.8391C8.0428 18.8762 8.12437 18.8973 8.20363 18.9254C10.5513 19.7613 12.8972 20.6014 15.2489 21.4288C15.4688 21.5061 15.5272 21.6039 15.5266 21.8097C15.518 23.9117 15.5214 26.0141 15.5214 28.116V28.4197L7.92015 25.7152C7.92015 25.3501 7.91147 25.0158 7.92709 24.6825C7.93199 24.6389 7.94721 24.5969 7.97169 24.5592C7.99617 24.5216 8.02932 24.4893 8.06883 24.4645C9.78822 23.6096 9.74136 21.4082 8.06073 20.6025C8.02397 20.5808 7.99289 20.5519 7.96969 20.518C7.9465 20.4841 7.93176 20.4459 7.92651 20.4062C7.91552 19.8972 7.92015 19.3878 7.92015 18.8397V18.8391ZM20.7727 9.0073C18.8752 9.18876 17.5752 8.28092 16.4453 7.03077L16.1364 7.40693C15.3346 8.38302 14.2932 8.95439 12.9424 9.0073C12.4529 9.02687 11.9623 9.02529 11.4723 9.02634C11.3173 9.02634 11.1917 9.04433 11.2293 9.22262C11.2999 9.55751 11.0529 9.60407 10.7966 9.66067C10.7966 8.67664 10.763 7.70901 10.807 6.74403C10.8423 5.96686 11.3398 5.46003 12.118 5.16111C12.3532 5.07295 12.5681 4.94497 12.7514 4.7839C13.7222 3.90357 14.8677 3.40838 16.2458 3.38827C17.2611 3.37065 18.2572 3.6432 19.0952 4.16792C19.9331 4.69264 20.5711 5.44339 20.9203 6.3155C21.3605 7.39687 21.2043 8.51846 21.2153 9.62946C21.2153 9.64216 21.1933 9.65538 21.202 9.64533C20.7218 9.65062 20.7536 9.34166 20.7727 9.0073ZM19.8101 9.90668C19.8101 10.6235 19.8101 11.3266 19.8101 12.0292C19.8046 12.1962 19.7889 12.3627 19.7632 12.5281C19.5601 14.093 18.1804 15.3427 16.4407 15.5389C14.7705 15.7273 13.0853 14.8115 12.4865 13.3698C12.3621 13.0693 12.2522 12.7456 12.2394 12.4292C12.2047 11.5981 12.2279 10.7648 12.2279 9.89557C13.8981 9.99503 15.3375 9.5099 16.5009 8.40313C18.189 9.59772 18.189 9.59772 19.8089 9.90668H19.8101ZM18.2428 19.9554C18.5847 19.019 18.9012 18.1403 19.2327 17.2673C19.2553 17.2081 19.401 17.1425 19.478 17.1531C19.9883 17.2234 20.495 17.3171 21.0041 17.3964C21.7215 17.5075 22.3637 17.7366 22.8063 18.3307L18.2428 19.9554ZM13.7592 19.9554L9.19291 18.3286C9.52904 17.9054 9.945 17.6229 10.4657 17.5133C11.1657 17.3663 11.875 17.2552 12.5819 17.1398C12.6196 17.141 12.6564 17.1509 12.6887 17.1687C12.721 17.1865 12.7478 17.2115 12.7665 17.2414C13.0951 18.1249 13.4156 19.0116 13.7581 19.9549L13.7592 19.9554ZM17.8454 20.0962C17.2576 20.3078 16.6883 20.5109 16.1185 20.7104C16.0564 20.7331 15.9877 20.7361 15.9235 20.7188C15.3351 20.5162 14.7497 20.3067 14.2093 20.1157L16.0386 18.4402L17.8454 20.0962ZM24.9613 21.2431C25.2957 21.2357 25.5051 21.3823 25.5149 21.6865C25.5329 22.2489 25.5311 22.8118 25.5149 23.3741C25.5068 23.6657 25.2957 23.8312 24.9977 23.8328C24.2832 23.8328 23.6376 23.2345 23.6208 22.5515C23.6017 21.8791 24.237 21.2585 24.9578 21.2426L24.9613 21.2431ZM6.48309 22.5409C6.48309 22.2859 6.47846 22.0309 6.48309 21.7759C6.49176 21.3839 6.70061 21.2119 7.11947 21.2468C7.81833 21.3024 8.41363 21.9246 8.38413 22.5695C8.35289 23.2488 7.72981 23.827 7.02054 23.8349C6.69772 23.8386 6.49986 23.6604 6.48656 23.3355C6.47441 23.0689 6.48309 22.8049 6.48309 22.5409ZM17.7239 18.5794L16.8116 17.7414C17.1442 17.5118 17.526 17.2361 17.9252 16.9832C18.0155 16.9256 18.1665 16.9478 18.3256 16.9303C18.1028 17.5409 17.9067 18.0778 17.7239 18.5794ZM15.1714 17.7366L14.2707 18.564C14.0907 18.0678 13.8935 17.525 13.6968 16.9838C14.0202 16.8621 13.7725 16.7706 15.1714 17.7366ZM14.7289 16.3161C15.1685 16.3584 15.5851 16.4299 16.0016 16.4299C16.4182 16.4299 16.8335 16.3584 17.2744 16.3156L16.0016 17.1912L14.7289 16.3161ZM20.7727 10.5161C21.386 10.8034 21.3027 11.733 20.786 11.88C20.7814 11.8091 20.7733 11.742 20.7733 11.6748C20.7727 11.2997 20.7727 10.924 20.7727 10.5161ZM11.2073 11.8917C10.6352 11.6557 10.6716 10.7278 11.2073 10.5405V11.8917Z"/>
</mask>
<path d="M16.9816 2.5H15.6545C15.6227 2.5164 15.5926 2.54391 15.559 2.54761C14.244 2.69786 13.1362 3.2285 12.1822 4.05805C12.0142 4.19747 11.823 4.31158 11.6158 4.39611C10.5843 4.83628 9.90855 5.56584 9.85243 6.59695C9.76855 8.14072 9.80615 9.69083 9.82409 11.2383C9.83392 12.0435 10.3205 12.5958 11.1507 12.8783C11.1998 12.8963 11.2444 12.9234 11.2815 12.9579C11.3187 12.9924 11.3476 13.0336 11.3664 13.0789C11.6812 14.2343 12.391 15.1231 13.4763 15.7722C13.5568 15.8204 13.588 15.9357 13.6649 16.0558C12.7422 16.2098 11.8975 16.3648 11.0477 16.4891C10.1978 16.6134 9.39771 16.8256 8.77232 17.4028C8.57794 17.5816 8.40843 17.7832 8.2233 17.9789L6.93665 17.5319V20.3385C6.32457 20.3998 5.88142 20.6559 5.63959 21.1611C5.5719 21.3029 5.54587 21.4611 5.50017 21.6119V23.4604C5.52135 23.5088 5.53894 23.5585 5.55281 23.609C5.66852 24.1841 6.07349 24.5672 6.6983 24.6867C6.77929 24.7021 6.85855 24.7227 6.94706 24.7428C6.94706 25.1994 6.95806 25.639 6.94186 26.0781C6.93549 26.2575 6.99971 26.3426 7.18021 26.4045C10.057 27.4238 12.9333 28.4449 15.809 29.4677C15.9312 29.5069 16.0645 29.5069 16.1867 29.4677C19.0736 28.4474 21.9589 27.4231 24.8427 26.395C25.0012 26.3384 25.0625 26.2675 25.0585 26.1083C25.0457 25.6522 25.0538 25.1957 25.0538 24.7386C25.121 24.7227 25.1667 24.7105 25.2129 24.7015C25.9853 24.5566 26.4088 24.172 26.4643 23.4588C26.5117 22.8446 26.5117 22.2282 26.4643 21.614C26.4064 20.8834 25.9564 20.4829 25.1609 20.3533C25.1229 20.3447 25.0856 20.3339 25.0492 20.321V17.5382L23.7626 17.9868C23.7047 17.9165 23.6503 17.8551 23.5994 17.7927C23.1216 17.2107 22.5054 16.8092 21.7279 16.6415C21.2616 16.541 20.7884 16.4701 20.3174 16.3896C19.6811 16.2807 19.0389 16.1743 18.4164 16.0722C18.3163 15.841 18.5009 15.786 18.6293 15.7072C19.6125 15.117 20.3176 14.2107 20.605 13.1677C20.6536 12.9995 20.7207 12.9032 20.9151 12.8466C21.2696 12.742 21.5803 12.5401 21.8049 12.2684C22.0296 11.9966 22.1572 11.6682 22.1705 11.3277C22.1948 10.5341 22.1936 9.74426 22.1849 8.95281C22.178 8.32959 22.2092 7.69737 22.1062 7.08579C21.7591 5.02938 20.4806 3.62317 18.384 2.84811C17.9379 2.68358 17.4502 2.61375 16.9816 2.5ZM16.4991 28.4149C16.4899 28.3223 16.4806 28.2721 16.4806 28.2218C16.4806 26.058 16.4806 23.8942 16.4748 21.7299C16.4748 21.5458 16.5744 21.4966 16.7282 21.4421C19.0863 20.6051 21.4436 19.7662 23.8002 18.9254C23.8835 18.8957 23.9737 18.8767 24.0808 18.8455C24.0808 19.3899 24.086 19.8994 24.0744 20.4083C24.0688 20.448 24.0537 20.4862 24.0301 20.5199C24.0065 20.5537 23.975 20.5822 23.9379 20.6035C22.2538 21.4167 22.2185 23.6191 23.9379 24.4656C23.9749 24.4869 24.0064 24.5153 24.0303 24.5488C24.0542 24.5823 24.0698 24.6202 24.0761 24.6597C24.09 25.0105 24.0825 25.3618 24.0825 25.7178L16.4991 28.4149ZM7.92015 18.8391C8.0428 18.8762 8.12437 18.8973 8.20363 18.9254C10.5513 19.7613 12.8972 20.6014 15.2489 21.4288C15.4688 21.5061 15.5272 21.6039 15.5266 21.8097C15.518 23.9117 15.5214 26.0141 15.5214 28.116V28.4197L7.92015 25.7152C7.92015 25.3501 7.91147 25.0158 7.92709 24.6825C7.93199 24.6389 7.94721 24.5969 7.97169 24.5592C7.99617 24.5216 8.02932 24.4893 8.06883 24.4645C9.78822 23.6096 9.74136 21.4082 8.06073 20.6025C8.02397 20.5808 7.99289 20.5519 7.96969 20.518C7.9465 20.4841 7.93176 20.4459 7.92651 20.4062C7.91552 19.8972 7.92015 19.3878 7.92015 18.8397V18.8391ZM20.7727 9.0073C18.8752 9.18876 17.5752 8.28092 16.4453 7.03077L16.1364 7.40693C15.3346 8.38302 14.2932 8.95439 12.9424 9.0073C12.4529 9.02687 11.9623 9.02529 11.4723 9.02634C11.3173 9.02634 11.1917 9.04433 11.2293 9.22262C11.2999 9.55751 11.0529 9.60407 10.7966 9.66067C10.7966 8.67664 10.763 7.70901 10.807 6.74403C10.8423 5.96686 11.3398 5.46003 12.118 5.16111C12.3532 5.07295 12.5681 4.94497 12.7514 4.7839C13.7222 3.90357 14.8677 3.40838 16.2458 3.38827C17.2611 3.37065 18.2572 3.6432 19.0952 4.16792C19.9331 4.69264 20.5711 5.44339 20.9203 6.3155C21.3605 7.39687 21.2043 8.51846 21.2153 9.62946C21.2153 9.64216 21.1933 9.65538 21.202 9.64533C20.7218 9.65062 20.7536 9.34166 20.7727 9.0073ZM19.8101 9.90668C19.8101 10.6235 19.8101 11.3266 19.8101 12.0292C19.8046 12.1962 19.7889 12.3627 19.7632 12.5281C19.5601 14.093 18.1804 15.3427 16.4407 15.5389C14.7705 15.7273 13.0853 14.8115 12.4865 13.3698C12.3621 13.0693 12.2522 12.7456 12.2394 12.4292C12.2047 11.5981 12.2279 10.7648 12.2279 9.89557C13.8981 9.99503 15.3375 9.5099 16.5009 8.40313C18.189 9.59772 18.189 9.59772 19.8089 9.90668H19.8101ZM18.2428 19.9554C18.5847 19.019 18.9012 18.1403 19.2327 17.2673C19.2553 17.2081 19.401 17.1425 19.478 17.1531C19.9883 17.2234 20.495 17.3171 21.0041 17.3964C21.7215 17.5075 22.3637 17.7366 22.8063 18.3307L18.2428 19.9554ZM13.7592 19.9554L9.19291 18.3286C9.52904 17.9054 9.945 17.6229 10.4657 17.5133C11.1657 17.3663 11.875 17.2552 12.5819 17.1398C12.6196 17.141 12.6564 17.1509 12.6887 17.1687C12.721 17.1865 12.7478 17.2115 12.7665 17.2414C13.0951 18.1249 13.4156 19.0116 13.7581 19.9549L13.7592 19.9554ZM17.8454 20.0962C17.2576 20.3078 16.6883 20.5109 16.1185 20.7104C16.0564 20.7331 15.9877 20.7361 15.9235 20.7188C15.3351 20.5162 14.7497 20.3067 14.2093 20.1157L16.0386 18.4402L17.8454 20.0962ZM24.9613 21.2431C25.2957 21.2357 25.5051 21.3823 25.5149 21.6865C25.5329 22.2489 25.5311 22.8118 25.5149 23.3741C25.5068 23.6657 25.2957 23.8312 24.9977 23.8328C24.2832 23.8328 23.6376 23.2345 23.6208 22.5515C23.6017 21.8791 24.237 21.2585 24.9578 21.2426L24.9613 21.2431ZM6.48309 22.5409C6.48309 22.2859 6.47846 22.0309 6.48309 21.7759C6.49176 21.3839 6.70061 21.2119 7.11947 21.2468C7.81833 21.3024 8.41363 21.9246 8.38413 22.5695C8.35289 23.2488 7.72981 23.827 7.02054 23.8349C6.69772 23.8386 6.49986 23.6604 6.48656 23.3355C6.47441 23.0689 6.48309 22.8049 6.48309 22.5409ZM17.7239 18.5794L16.8116 17.7414C17.1442 17.5118 17.526 17.2361 17.9252 16.9832C18.0155 16.9256 18.1665 16.9478 18.3256 16.9303C18.1028 17.5409 17.9067 18.0778 17.7239 18.5794ZM15.1714 17.7366L14.2707 18.564C14.0907 18.0678 13.8935 17.525 13.6968 16.9838C14.0202 16.8621 13.7725 16.7706 15.1714 17.7366ZM14.7289 16.3161C15.1685 16.3584 15.5851 16.4299 16.0016 16.4299C16.4182 16.4299 16.8335 16.3584 17.2744 16.3156L16.0016 17.1912L14.7289 16.3161ZM20.7727 10.5161C21.386 10.8034 21.3027 11.733 20.786 11.88C20.7814 11.8091 20.7733 11.742 20.7733 11.6748C20.7727 11.2997 20.7727 10.924 20.7727 10.5161ZM11.2073 11.8917C10.6352 11.6557 10.6716 10.7278 11.2073 10.5405V11.8917Z" fill="white"/>
<path d="M16.9816 2.5H15.6545C15.6227 2.5164 15.5926 2.54391 15.559 2.54761C14.244 2.69786 13.1362 3.2285 12.1822 4.05805C12.0142 4.19747 11.823 4.31158 11.6158 4.39611C10.5843 4.83628 9.90855 5.56584 9.85243 6.59695C9.76855 8.14072 9.80615 9.69083 9.82409 11.2383C9.83392 12.0435 10.3205 12.5958 11.1507 12.8783C11.1998 12.8963 11.2444 12.9234 11.2815 12.9579C11.3187 12.9924 11.3476 13.0336 11.3664 13.0789C11.6812 14.2343 12.391 15.1231 13.4763 15.7722C13.5568 15.8204 13.588 15.9357 13.6649 16.0558C12.7422 16.2098 11.8975 16.3648 11.0477 16.4891C10.1978 16.6134 9.39771 16.8256 8.77232 17.4028C8.57794 17.5816 8.40843 17.7832 8.2233 17.9789L6.93665 17.5319V20.3385C6.32457 20.3998 5.88142 20.6559 5.63959 21.1611C5.5719 21.3029 5.54587 21.4611 5.50017 21.6119V23.4604C5.52135 23.5088 5.53894 23.5585 5.55281 23.609C5.66852 24.1841 6.07349 24.5672 6.6983 24.6867C6.77929 24.7021 6.85855 24.7227 6.94706 24.7428C6.94706 25.1994 6.95806 25.639 6.94186 26.0781C6.93549 26.2575 6.99971 26.3426 7.18021 26.4045C10.057 27.4238 12.9333 28.4449 15.809 29.4677C15.9312 29.5069 16.0645 29.5069 16.1867 29.4677C19.0736 28.4474 21.9589 27.4231 24.8427 26.395C25.0012 26.3384 25.0625 26.2675 25.0585 26.1083C25.0457 25.6522 25.0538 25.1957 25.0538 24.7386C25.121 24.7227 25.1667 24.7105 25.2129 24.7015C25.9853 24.5566 26.4088 24.172 26.4643 23.4588C26.5117 22.8446 26.5117 22.2282 26.4643 21.614C26.4064 20.8834 25.9564 20.4829 25.1609 20.3533C25.1229 20.3447 25.0856 20.3339 25.0492 20.321V17.5382L23.7626 17.9868C23.7047 17.9165 23.6503 17.8551 23.5994 17.7927C23.1216 17.2107 22.5054 16.8092 21.7279 16.6415C21.2616 16.541 20.7884 16.4701 20.3174 16.3896C19.6811 16.2807 19.0389 16.1743 18.4164 16.0722C18.3163 15.841 18.5009 15.786 18.6293 15.7072C19.6125 15.117 20.3176 14.2107 20.605 13.1677C20.6536 12.9995 20.7207 12.9032 20.9151 12.8466C21.2696 12.742 21.5803 12.5401 21.8049 12.2684C22.0296 11.9966 22.1572 11.6682 22.1705 11.3277C22.1948 10.5341 22.1936 9.74426 22.1849 8.95281C22.178 8.32959 22.2092 7.69737 22.1062 7.08579C21.7591 5.02938 20.4806 3.62317 18.384 2.84811C17.9379 2.68358 17.4502 2.61375 16.9816 2.5ZM16.4991 28.4149C16.4899 28.3223 16.4806 28.2721 16.4806 28.2218C16.4806 26.058 16.4806 23.8942 16.4748 21.7299C16.4748 21.5458 16.5744 21.4966 16.7282 21.4421C19.0863 20.6051 21.4436 19.7662 23.8002 18.9254C23.8835 18.8957 23.9737 18.8767 24.0808 18.8455C24.0808 19.3899 24.086 19.8994 24.0744 20.4083C24.0688 20.448 24.0537 20.4862 24.0301 20.5199C24.0065 20.5537 23.975 20.5822 23.9379 20.6035C22.2538 21.4167 22.2185 23.6191 23.9379 24.4656C23.9749 24.4869 24.0064 24.5153 24.0303 24.5488C24.0542 24.5823 24.0698 24.6202 24.0761 24.6597C24.09 25.0105 24.0825 25.3618 24.0825 25.7178L16.4991 28.4149ZM7.92015 18.8391C8.0428 18.8762 8.12437 18.8973 8.20363 18.9254C10.5513 19.7613 12.8972 20.6014 15.2489 21.4288C15.4688 21.5061 15.5272 21.6039 15.5266 21.8097C15.518 23.9117 15.5214 26.0141 15.5214 28.116V28.4197L7.92015 25.7152C7.92015 25.3501 7.91147 25.0158 7.92709 24.6825C7.93199 24.6389 7.94721 24.5969 7.97169 24.5592C7.99617 24.5216 8.02932 24.4893 8.06883 24.4645C9.78822 23.6096 9.74136 21.4082 8.06073 20.6025C8.02397 20.5808 7.99289 20.5519 7.96969 20.518C7.9465 20.4841 7.93176 20.4459 7.92651 20.4062C7.91552 19.8972 7.92015 19.3878 7.92015 18.8397V18.8391ZM20.7727 9.0073C18.8752 9.18876 17.5752 8.28092 16.4453 7.03077L16.1364 7.40693C15.3346 8.38302 14.2932 8.95439 12.9424 9.0073C12.4529 9.02687 11.9623 9.02529 11.4723 9.02634C11.3173 9.02634 11.1917 9.04433 11.2293 9.22262C11.2999 9.55751 11.0529 9.60407 10.7966 9.66067C10.7966 8.67664 10.763 7.70901 10.807 6.74403C10.8423 5.96686 11.3398 5.46003 12.118 5.16111C12.3532 5.07295 12.5681 4.94497 12.7514 4.7839C13.7222 3.90357 14.8677 3.40838 16.2458 3.38827C17.2611 3.37065 18.2572 3.6432 19.0952 4.16792C19.9331 4.69264 20.5711 5.44339 20.9203 6.3155C21.3605 7.39687 21.2043 8.51846 21.2153 9.62946C21.2153 9.64216 21.1933 9.65538 21.202 9.64533C20.7218 9.65062 20.7536 9.34166 20.7727 9.0073ZM19.8101 9.90668C19.8101 10.6235 19.8101 11.3266 19.8101 12.0292C19.8046 12.1962 19.7889 12.3627 19.7632 12.5281C19.5601 14.093 18.1804 15.3427 16.4407 15.5389C14.7705 15.7273 13.0853 14.8115 12.4865 13.3698C12.3621 13.0693 12.2522 12.7456 12.2394 12.4292C12.2047 11.5981 12.2279 10.7648 12.2279 9.89557C13.8981 9.99503 15.3375 9.5099 16.5009 8.40313C18.189 9.59772 18.189 9.59772 19.8089 9.90668H19.8101ZM18.2428 19.9554C18.5847 19.019 18.9012 18.1403 19.2327 17.2673C19.2553 17.2081 19.401 17.1425 19.478 17.1531C19.9883 17.2234 20.495 17.3171 21.0041 17.3964C21.7215 17.5075 22.3637 17.7366 22.8063 18.3307L18.2428 19.9554ZM13.7592 19.9554L9.19291 18.3286C9.52904 17.9054 9.945 17.6229 10.4657 17.5133C11.1657 17.3663 11.875 17.2552 12.5819 17.1398C12.6196 17.141 12.6564 17.1509 12.6887 17.1687C12.721 17.1865 12.7478 17.2115 12.7665 17.2414C13.0951 18.1249 13.4156 19.0116 13.7581 19.9549L13.7592 19.9554ZM17.8454 20.0962C17.2576 20.3078 16.6883 20.5109 16.1185 20.7104C16.0564 20.7331 15.9877 20.7361 15.9235 20.7188C15.3351 20.5162 14.7497 20.3067 14.2093 20.1157L16.0386 18.4402L17.8454 20.0962ZM24.9613 21.2431C25.2957 21.2357 25.5051 21.3823 25.5149 21.6865C25.5329 22.2489 25.5311 22.8118 25.5149 23.3741C25.5068 23.6657 25.2957 23.8312 24.9977 23.8328C24.2832 23.8328 23.6376 23.2345 23.6208 22.5515C23.6017 21.8791 24.237 21.2585 24.9578 21.2426L24.9613 21.2431ZM6.48309 22.5409C6.48309 22.2859 6.47846 22.0309 6.48309 21.7759C6.49176 21.3839 6.70061 21.2119 7.11947 21.2468C7.81833 21.3024 8.41363 21.9246 8.38413 22.5695C8.35289 23.2488 7.72981 23.827 7.02054 23.8349C6.69772 23.8386 6.49986 23.6604 6.48656 23.3355C6.47441 23.0689 6.48309 22.8049 6.48309 22.5409ZM17.7239 18.5794L16.8116 17.7414C17.1442 17.5118 17.526 17.2361 17.9252 16.9832C18.0155 16.9256 18.1665 16.9478 18.3256 16.9303C18.1028 17.5409 17.9067 18.0778 17.7239 18.5794ZM15.1714 17.7366L14.2707 18.564C14.0907 18.0678 13.8935 17.525 13.6968 16.9838C14.0202 16.8621 13.7725 16.7706 15.1714 17.7366ZM14.7289 16.3161C15.1685 16.3584 15.5851 16.4299 16.0016 16.4299C16.4182 16.4299 16.8335 16.3584 17.2744 16.3156L16.0016 17.1912L14.7289 16.3161ZM20.7727 10.5161C21.386 10.8034 21.3027 11.733 20.786 11.88C20.7814 11.8091 20.7733 11.742 20.7733 11.6748C20.7727 11.2997 20.7727 10.924 20.7727 10.5161ZM11.2073 11.8917C10.6352 11.6557 10.6716 10.7278 11.2073 10.5405V11.8917Z" stroke="white" stroke-width="0.2" mask="url(#path-1-outside-1_4654_29504)"/>
</g>
<defs>
<clipPath id="clip0_4654_29504">
<rect width="21" height="27" fill="white" transform="matrix(-1 0 0 1 26.5 2.5)"/>
</clipPath>
</defs>
</svg>
