<svg width="32" height="32" viewBox="0 0 32 32" fill="none" xmlns="http://www.w3.org/2000/svg">
<g clip-path="url(#clip0_4654_29517)">
<path d="M14.7446 4H27.7579C28.4499 4.15143 29.0794 4.42583 29.4799 5.02296C29.699 5.34944 29.8294 5.73231 29.9998 6.08941V16.4301C29.9784 16.4663 29.96 16.5042 29.945 16.5434C29.5527 17.8472 28.6384 18.519 27.2523 18.5195C26.0404 18.5195 24.8284 18.5195 23.6161 18.5195C23.5219 18.5195 23.4277 18.5281 23.3137 18.534C23.3537 18.6489 23.3811 18.7327 23.4118 18.8149C23.9783 20.327 24.5444 21.8392 25.1101 23.3513C25.5594 24.5547 26.0125 25.7565 26.4475 26.9647C26.5866 27.3513 26.3779 27.7546 26.0064 27.9184C25.6131 28.0918 25.1967 27.964 24.971 27.5924C24.9072 27.4847 24.8537 27.3715 24.811 27.2541C23.7518 24.4314 22.695 21.6074 21.6405 18.7821C21.5666 18.5834 21.48 18.5104 21.257 18.5088C21.0341 18.5072 20.9448 18.5845 20.8735 18.781C19.9462 21.3006 19.0136 23.8185 18.0756 26.3348C17.9173 26.7606 17.7612 27.1892 17.5678 27.5999C17.4297 27.8931 17.1437 28.0204 16.8199 27.9909C16.6641 27.9809 16.5145 27.927 16.3892 27.8356C16.2639 27.7443 16.1682 27.6193 16.1137 27.4759C15.997 27.2042 16.0852 26.9523 16.1795 26.6989C17.155 24.0741 18.1304 21.4481 19.1056 18.8208C19.1396 18.73 19.1637 18.6366 19.2004 18.5174H18.9352C18.0877 18.5174 17.2401 18.5136 16.3931 18.5249C16.3192 18.5249 16.2288 18.6167 16.174 18.686C15.5407 19.5736 14.4702 19.9211 13.4583 19.4968C12.6984 19.1795 11.9703 18.7891 11.2285 18.4315C11.0597 18.3498 10.891 18.2704 10.6839 18.1705V18.5276C10.6839 21.3579 10.6839 24.1885 10.6839 27.0195C10.6839 27.6735 10.3552 27.9946 9.69775 27.9952C8.03884 27.9952 6.38028 27.9952 4.7221 27.9952C4.07288 27.9952 3.75293 27.6778 3.75238 27.0393C3.75238 25.6641 3.75238 24.2889 3.75238 22.9137C3.75238 22.7649 3.72061 22.6796 3.56556 22.6097C2.54435 22.1501 2.0195 21.358 2.00636 20.2513C1.99649 19.4206 1.99869 18.5904 2.00636 17.7597C2.0195 16.1487 2.64078 14.8154 3.90743 13.7812C4.13479 13.5954 4.38187 13.4332 4.61965 13.2587C2.86102 11.6445 2.99415 9.22164 4.38133 7.77447C5.76084 6.33588 8.04103 6.16727 9.65447 7.42435C10.4126 8.00025 10.9158 8.83988 11.0597 9.76936C11.2641 11.0071 10.8987 12.0929 10.0467 13.0342L12.5433 14.2462V13.8703C12.5433 11.477 12.5499 9.08417 12.5406 6.69083C12.5395 5.78064 12.8474 5.01651 13.6144 4.49671C13.9497 4.26849 14.3661 4.1611 14.7446 4ZM16.4808 16.8941C16.5226 16.9024 16.5649 16.9084 16.6074 16.9118C20.1962 16.9118 23.7854 16.9118 27.375 16.9118C27.9733 16.9118 28.3568 16.5166 28.3578 15.9205C28.3622 12.8142 28.3622 9.70797 28.3578 6.60169C28.3578 5.9949 27.9656 5.61203 27.3454 5.61149C23.3011 5.6072 19.2564 5.6072 15.2114 5.61149C14.5759 5.61149 14.1973 5.99705 14.1962 6.61995C14.1962 7.62841 14.1962 8.63704 14.1962 9.64586C14.1962 11.3685 14.1975 13.0913 14.2001 14.8143C14.2001 14.9083 14.2264 15.0528 14.2905 15.0887C14.6093 15.2676 14.9479 15.4184 15.2848 15.5833C15.3511 15.4571 15.4054 15.3551 15.4579 15.2525C15.9669 14.2575 16.4731 13.2619 16.9843 12.268C17.1843 11.8803 17.4834 11.7095 17.8537 11.7557C18.4624 11.8319 18.7533 12.4103 18.4602 12.9907C17.851 14.1952 17.233 15.3948 16.62 16.5971C16.5728 16.6868 16.5318 16.7829 16.4808 16.8941ZM9.01786 26.3643V26.0164C9.01786 23.0451 9.01786 20.0737 9.01786 17.1024C9.01632 16.951 9.03083 16.7998 9.06114 16.6514C9.13455 16.3163 9.45944 16.0489 9.80842 16.0607C9.99711 16.0703 10.1818 16.1174 10.3514 16.1992C11.5429 16.7722 12.7241 17.365 13.919 17.9294C14.1138 18.012 14.3299 18.0334 14.5375 17.9906C14.7622 17.9433 14.8904 17.7307 14.8947 17.5014C14.8991 17.2619 14.7337 17.1218 14.5228 17.0181C12.9997 16.2787 11.4597 15.5683 9.96182 14.7832C8.8661 14.2086 7.72984 14.1216 6.54866 14.2876C5.11108 14.4895 3.81539 15.7981 3.70527 17.2173C3.62528 18.2467 3.6461 19.2853 3.65322 20.3195C3.65596 20.799 4.02577 21.1508 4.48432 21.1975C5.15216 21.2651 5.39815 21.5277 5.3987 22.1802C5.3987 23.4743 5.3987 24.7686 5.3987 26.0631V26.3611L9.01786 26.3643ZM7.22691 12.5918C7.52053 12.5911 7.81112 12.5336 8.08203 12.4226C8.35295 12.3117 8.59886 12.1494 8.80569 11.9451C9.01252 11.7408 9.1762 11.4986 9.28734 11.2322C9.39849 10.9658 9.45492 10.6806 9.45341 10.3928C9.45067 9.18405 8.44206 8.17935 7.21705 8.20083C5.91259 8.22339 4.97685 9.18727 4.97411 10.4159C4.97137 11.6354 5.99916 12.6014 7.22691 12.5918Z" fill="white"/>
<path d="M21.2583 9.05291C19.8471 9.05291 18.4358 9.04969 17.0239 9.05291C16.6859 9.05291 16.3906 8.9815 16.1934 8.68991C15.8466 8.17763 16.1879 7.49834 16.8223 7.43498C16.8946 7.428 16.9681 7.43068 17.0415 7.43068C19.8644 7.43068 22.6873 7.43068 25.5103 7.43068C25.646 7.42843 25.7814 7.44507 25.9124 7.48009C26.0928 7.53354 26.2487 7.64645 26.3539 7.79971C26.459 7.95296 26.5068 8.13713 26.4893 8.321C26.4444 8.71569 26.1442 9.01908 25.736 9.03895C25.2818 9.0599 24.826 9.05184 24.3707 9.05238C23.3342 9.05417 22.2967 9.05435 21.2583 9.05291Z" fill="white"/>
<path d="M23.4542 12.0774C22.7541 12.0774 22.0533 12.0859 21.3532 12.0774C20.7072 12.0677 20.3122 11.5672 20.4903 11.012C20.5966 10.6812 20.8946 10.4524 21.3022 10.4497C22.7486 10.4406 24.1949 10.4374 25.6413 10.4497C26.1453 10.4546 26.5052 10.8305 26.4948 11.2762C26.4844 11.7219 26.1223 12.0655 25.6128 12.0741C24.8918 12.0859 24.173 12.0774 23.4542 12.0774Z" fill="white"/>
<path d="M23.4761 13.4768C24.2305 13.4768 24.9865 13.4547 25.7404 13.4837C26.3556 13.5079 26.6909 14.1732 26.3732 14.6844C26.3038 14.8062 26.2023 14.9076 26.0794 14.9777C25.9564 15.0479 25.8164 15.0844 25.6741 15.0834C24.2009 15.0888 22.7271 15.0925 21.2534 15.0834C21.0366 15.0786 20.8304 14.9908 20.6789 14.8387C20.5274 14.6866 20.4428 14.4824 20.4431 14.2699C20.4422 14.0618 20.5254 13.8619 20.6745 13.7138C20.8235 13.5657 21.0264 13.4814 21.2386 13.4794C21.9843 13.4628 22.7299 13.4751 23.4761 13.4751V13.4768Z" fill="white"/>
</g>
<defs>
<clipPath id="clip0_4654_29517">
<rect width="28" height="24" fill="white" transform="translate(2 4)"/>
</clipPath>
</defs>
</svg>
