<svg width="32" height="32" viewBox="0 0 32 32" fill="none" xmlns="http://www.w3.org/2000/svg">
<path d="M13.8694 13.9312L13.8006 14.0037C13.8365 14.0378 13.872 14.0725 13.9087 14.1092C13.8156 14.1635 13.7218 14.217 13.6279 14.2706C13.303 14.456 12.9773 14.6419 12.6767 14.8618C12.3805 15.0786 12.0981 15.3365 11.832 15.5796C11.7415 15.6623 11.6529 15.7432 11.5662 15.8202L9.88278 14.5027C10.7873 13.5066 11.2334 12.1699 11.111 10.5456C11.0254 9.41011 10.6265 8.4586 9.97322 7.7032C9.32403 6.95173 8.49205 6.60422 7.66376 6.65464C6.83626 6.70501 6.02467 7.15168 5.41205 7.96454L5.41203 7.96457C4.88055 8.67031 4.48754 9.79718 4.47398 11.0161C4.46081 12.2011 4.80629 13.4805 5.74051 14.5497C5.03005 14.9253 4.39026 15.4429 3.83969 16.1462L3.83961 16.1463C2.86613 17.3929 2.27006 18.8916 2.09032 20.674C2.07718 20.7518 2.05973 20.8281 2.03814 20.9022L2.03416 20.9159V20.9301V22.2589V22.3589H2.13416H8.82934V22.36V22.3633V22.3667V22.3701V22.3734V22.3768V22.3801V22.3835V22.3868V22.3902V22.3935V22.3969V22.4002V22.4035V22.4069V22.4102V22.4136V22.4169V22.4203V22.4236V22.4269V22.4303V22.4336V22.4369V22.4403V22.4436V22.4469V22.4503V22.4536V22.4569V22.4603V22.4636V22.4669V22.4703V22.4736V22.4769V22.4802V22.4836V22.4869V22.4902V22.4935V22.4969V22.5002V22.5035V22.5068V22.5101V22.5135V22.5168V22.5201V22.5234V22.5267V22.53V22.5333V22.5367V22.54V22.5433V22.5466V22.5499V22.5532V22.5565V22.5598V22.5631V22.5664V22.5697V22.573V22.5763V22.5796V22.5829V22.5862V22.5895V22.5928V22.5961V22.5994V22.6027V22.606V22.6093V22.6126V22.6159V22.6192V22.6225V22.6258V22.6291V22.6324V22.6357V22.639V22.6422V22.6455V22.6488V22.6521V22.6554V22.6587V22.662V22.6652V22.6685V22.6718V22.6751V22.6784V22.6816V22.6849V22.6882V22.6915V22.6948V22.698V22.7013V22.7046V22.7079V22.7111V22.7144V22.7177V22.7209V22.7242V22.7275V22.7308V22.734V22.7373V22.7406V22.7438V22.7471V22.7504V22.7536V22.7569V22.7602V22.7634V22.7667V22.7699V22.7732V22.7765V22.7797V22.783V22.7862V22.7895V22.7928V22.796V22.7993V22.8025V22.8058V22.809V22.8123V22.8155V22.8188V22.822V22.8253V22.8285V22.8318V22.835V22.8383V22.8415V22.8448V22.848V22.8513V22.8545V22.8578V22.861V22.8643V22.8675V22.8707V22.874V22.8772V22.8805V22.8837V22.8869V22.8902V22.8934V22.8967V22.8999V22.9031V22.9064V22.9096V22.9128V22.9161V22.9193V22.9225V22.9258V22.929V22.9322V22.9355V22.9387V22.9419V22.9452V22.9484V22.9516V22.9548V22.9581V22.9613V22.9645V22.9678V22.971V22.9742V22.9774V22.9806V22.9839V22.9871V22.9903V22.9935V22.9968V23V23.0032V23.0064V23.0096V23.0129V23.0161V23.0193V23.0225V23.0257V23.0289V23.0322V23.0354V23.0386V23.0418V23.045V23.0482V23.0514V23.0546V23.0579V23.0611V23.0643V23.0675V23.0707V23.0739V23.0771V23.0803V23.0835V23.0867V23.0899V23.0932V23.0964V23.0996V23.1028V23.106V23.1092V23.1124V23.1156V23.1188V23.122V23.1252V23.1284V23.1316V23.1348V23.138V23.1412V23.1444V23.1476V23.1508V23.154V23.1572V23.1604V23.1636V23.1668V23.17V23.1732V23.1764V23.1796V23.1828V23.1859V23.1891V23.1923V23.1955V23.1987V23.2019V23.2051V23.2083V23.2115V23.2147V23.2179V23.2211V23.2242V23.2274V23.2306V23.2338V23.237V23.2402V23.2434V23.2466V23.2497V23.2529V23.2561V23.2593V23.2625V23.2657V23.2688V23.272V23.2752V23.2784V23.2816V23.2848V23.2879V23.2911V23.2943V23.2975V23.3007V23.3038V23.307V23.3102V23.3134V23.3166V23.3197V23.3229V23.3261V23.3293V23.3324V23.3356V23.3388V23.342V23.3452V23.3483V23.3515V23.3547V23.3579V23.361V23.3642V23.3674V23.3705V23.3737V23.3769V23.3801V23.3832V23.3864V23.3896V23.3928V23.3959V23.3991V23.4023V23.4054V23.4086V23.4118V23.4149V23.4181V23.4213V23.4244V23.4276V23.4308V23.434V23.4371V23.4403V23.4435V23.4466V23.4498V23.453V23.4561V23.4593V23.4624V23.4656V23.4688V23.4719V23.4751V23.4783V23.4814V23.4846V23.4878V23.4909V23.4941V23.4972V23.5004V23.5036V23.5067V23.5099V23.5131V23.5162V23.5194V23.5225V23.5257V23.5289V23.532V23.5352V23.5383V23.5415V23.5447V23.5478V23.551V23.5541V23.5573V23.5605V23.5636V23.5668V23.5699V23.5731V23.5762V23.5794V23.5826V23.5857V23.5889V23.592V23.5952V23.5983V23.6015V23.6047V23.6078V23.611V23.6141V23.6173V23.6204V23.6236V23.6267V23.6299V23.6331V23.6362V23.6394V23.6425V23.6457V23.6488V23.652V23.6551V23.6583V23.6614V23.6646V23.6677V23.6709V23.6741V23.6772V23.6804V23.6835V23.6867V23.6898V23.693V23.6961V23.6993V23.7024V23.7056V23.7087V23.7119V23.715V23.7182V23.7213V23.7245V23.7276V23.7308V23.7339V23.7371V23.7402V23.7434V23.7465V23.7497V23.7528V23.756V23.7591V23.7623V23.7654V23.7686V23.7717V23.7749V23.778V23.7812V23.7843V23.7875V23.7906V23.7938V23.7969V23.8001V23.8032V23.8064V23.8095V23.8127V23.8158V23.819V23.8221V23.8253V23.8284V23.8316V23.8347V23.8379V23.841V23.8442V23.8473V23.8505V23.8536V23.8568V23.8599V23.8631V23.8662V23.8694V23.8725V23.8757V23.8788V23.882V23.8851V23.8883V23.8914V23.8946V23.8977V23.9009V23.904V23.9072L8.82933 23.9103L8.82934 23.9106C8.83327 25.0688 9.15275 26.101 9.6953 26.849C10.2385 27.5979 11.0077 28.0637 11.9024 28.0749L11.9026 28.0749C14.802 28.1064 17.7013 28.1064 20.6004 28.0749C22.1708 28.0579 23.3694 26.65 23.6082 24.6434C23.6712 24.115 23.655 23.565 23.6387 23.0102C23.6323 22.7906 23.6258 22.5702 23.6242 22.3501H30.376H30.4675L30.4756 22.259C30.5858 21.0286 30.3886 19.4665 29.7918 18.021C29.2102 16.6122 28.2457 15.3069 26.8078 14.532C27.7171 13.4926 28.0707 12.2341 28.067 11.055C28.0632 9.841 27.6808 8.70315 27.1265 7.9647C26.5139 7.14629 25.7016 6.69763 24.8738 6.64726C24.0453 6.59683 23.2137 6.94628 22.5668 7.69956C21.9155 8.45454 21.5108 9.39777 21.4258 10.5383L21.4258 10.5383C21.305 12.166 21.7442 13.5037 22.637 14.4806C22.522 14.5774 22.4069 14.6738 22.2918 14.7701C21.8751 15.1192 21.4589 15.4678 21.0498 15.831C20.9955 15.8789 20.9762 15.8746 20.9727 15.8738L20.9725 15.8738C20.9667 15.8726 20.9563 15.8689 20.9382 15.8568C20.9197 15.8445 20.8989 15.8275 20.8709 15.8037L20.8708 15.8037C20.8298 15.769 20.7889 15.7344 20.7479 15.6996C20.2786 15.3024 19.8065 14.9028 19.32 14.5364L19.3199 14.5363C19.1831 14.4335 19.0383 14.354 18.8925 14.2808C18.8372 14.2531 18.7827 14.2267 18.7283 14.2004C18.6735 14.1738 18.6188 14.1473 18.5636 14.1196C18.5811 14.0999 18.5965 14.0834 18.6134 14.0677L18.6141 14.067C19.6905 13.0402 20.2971 11.6667 20.4153 9.91241C20.5629 7.71822 19.6558 5.46891 18.1185 4.5332C17.8549 4.37269 17.5754 4.26524 17.297 4.17338C17.1897 4.13795 17.084 4.10528 16.9795 4.07294C16.8084 4.02002 16.6401 3.96798 16.4716 3.90613L16.4549 3.9H16.4371H16.0509H16.0333L16.0167 3.90605C15.8499 3.96686 15.6829 4.01725 15.5129 4.06855C15.4108 4.09936 15.3076 4.1305 15.2027 4.16443C14.928 4.25327 14.6523 4.35831 14.3947 4.51901L14.3942 4.51931C12.9662 5.42125 12.1832 7.19485 12.0709 9.02997C11.9585 10.8659 12.5151 12.7904 13.8008 14.0039L13.8694 13.9312ZM13.8694 13.9312C11.3526 11.5556 11.6636 6.36228 14.4476 4.60386M13.8694 13.9312C13.912 13.9716 13.9539 14.0127 13.9977 14.0569L14.4476 4.60386M14.4476 4.60386C14.7866 4.39238 15.1619 4.27903 15.5373 4.16566C15.7097 4.11361 15.8821 4.06156 16.0509 4H16.4371C16.6074 4.06251 16.7807 4.11615 16.9541 4.1698C17.3356 4.28786 17.7173 4.40595 18.0665 4.61862C19.562 5.52884 20.4616 7.73535 20.3155 9.90569C20.1988 11.639 19.6007 12.9877 18.5451 13.9946L14.4476 4.60386ZM30.376 22.2501C30.5912 19.8467 29.6177 16.1443 26.7393 14.6087L30.376 22.2501ZM30.376 22.2501H23.6239H30.376ZM19.2599 14.6162C19.0826 14.4831 18.8888 14.3892 18.6877 14.2918C18.6243 14.2611 18.5601 14.23 18.4955 14.1973L19.2599 14.6162ZM19.2599 14.6162C19.7439 14.9809 20.2139 15.3787 20.6836 15.7762M19.2599 14.6162L20.6836 15.7762M22.5146 24.425L22.5146 24.425C22.6025 23.2158 22.5363 22.0139 22.2273 20.8691C21.3838 17.7425 19.7589 15.8044 17.3297 15.1997C15.3431 14.706 13.5657 15.4109 12.0381 17.213C10.8563 18.6076 10.1705 20.3824 9.98387 22.4767L9.98387 22.4768C9.92057 23.1826 9.90183 23.9239 10.0009 24.6084C10.1864 25.8813 10.9896 26.6506 11.938 26.6569C11.938 26.6569 11.9381 26.6569 11.9381 26.6569L11.9374 26.7569C12.9048 26.7624 13.8706 26.7607 14.8365 26.7591C15.2962 26.7584 15.7559 26.7576 16.2158 26.7576L22.5146 24.425ZM22.5146 24.425C22.4251 25.6643 21.5491 26.6415 20.6036 26.6532C19.5827 26.666 18.562 26.6631 17.5406 26.6601C17.0993 26.6589 16.658 26.6576 16.2164 26.6576L22.5146 24.425ZM9.93264 18.3385L9.93265 18.3384C10.0875 17.9557 10.2887 17.6012 10.4862 17.2531C10.5612 17.1209 10.6357 16.9896 10.707 16.8581C9.35346 15.3089 7.31093 14.9947 5.68861 16.1281C4.24755 17.1355 3.41618 18.7365 3.16009 20.9079C3.18181 20.9125 3.1906 20.9136 3.19753 20.9136C5.11841 20.9136 7.04005 20.9136 8.96172 20.9202C8.99205 20.9202 9.00965 20.9152 9.02035 20.91C9.03043 20.9052 9.03963 20.8979 9.04954 20.8843L9.93264 18.3385ZM9.93264 18.3385C9.66542 18.9995 9.44403 19.6939 9.22441 20.3828C9.19023 20.49 9.15609 20.5971 9.12182 20.7039L9.93264 18.3385ZM20.6836 15.7762C20.7245 15.8109 20.7653 15.8455 20.8062 15.88L20.6836 15.7762ZM16.2371 5.34462H16.2379H16.2384C16.6394 5.3449 17.0376 5.45073 17.4105 5.6576C17.7835 5.86458 18.1244 6.16898 18.4125 6.5551C18.7005 6.94124 18.9297 7.40084 19.0857 7.90801C19.2418 8.41515 19.3214 8.95901 19.3198 9.50824V9.50828C19.3168 10.6544 18.9607 11.6863 18.3925 12.4295C17.8244 13.1726 17.0484 13.6229 16.201 13.623C15.3733 13.6216 14.6136 13.168 14.0573 12.4211C13.5011 11.6743 13.1534 10.6395 13.1534 9.49525L13.1534 9.49476C13.1507 8.94546 13.2298 8.40131 13.3858 7.89406C13.5418 7.38677 13.7713 6.92736 14.06 6.542C14.3487 6.15666 14.6903 5.85371 15.064 5.64892C15.4375 5.44424 15.8361 5.34134 16.2371 5.34462ZM21.7577 16.8864C22.4756 16.1577 23.2148 15.696 23.9745 15.517C24.7507 15.3341 25.5585 15.4439 26.4018 15.8817L26.4018 15.8817C28.0928 16.7587 29.0514 18.4838 29.3679 20.9059C29.311 20.9106 29.2637 20.9143 29.2147 20.9143H29.2147C28.6592 20.9147 28.1037 20.9147 27.548 20.9146C26.228 20.9144 24.9075 20.9142 23.587 20.9209L23.5867 20.921C23.499 20.9216 23.458 20.9056 23.4311 20.8805C23.4002 20.8517 23.3689 20.7938 23.3423 20.6674L23.3421 20.6664C23.0558 19.3726 22.5682 18.1722 21.9101 17.1438C21.9102 17.144 21.9103 17.1441 21.9103 17.1442L21.7577 16.8864ZM26.952 11.0393V11.0396C26.9518 11.8659 26.6966 12.6243 26.291 13.1709C25.8852 13.7178 25.3351 14.0456 24.7419 14.0342C23.5292 14.0106 22.5326 12.8357 22.519 11.0543V11.0543C22.5049 9.28764 23.5481 8.05017 24.7427 8.05017L24.7429 8.05017C25.0289 8.04953 25.3133 8.12426 25.5801 8.27164C25.8471 8.41912 26.0917 8.63679 26.2988 8.91388C26.506 9.19099 26.671 9.52139 26.7835 9.88656C26.8959 10.2517 26.9533 10.6435 26.952 11.0393ZM24.7399 14.1342C26.008 14.1585 27.0515 12.7316 27.052 11.0396L22.419 11.0551C22.4328 12.8667 23.4519 14.1091 24.7399 14.1342ZM5.56591 11.0365C5.56428 9.27144 6.60671 8.05511 7.77771 8.04943C8.06382 8.04948 8.34826 8.12463 8.61514 8.27212C8.8823 8.41978 9.12714 8.63738 9.33466 8.91427C9.54219 9.19118 9.7078 9.52129 9.82109 9.88623C9.93437 10.2511 9.99285 10.6429 9.99285 11.0388C9.99285 11.4348 9.93437 11.8266 9.82109 12.1915C9.7078 12.5564 9.54219 12.8865 9.33466 13.1634C9.12714 13.4403 8.8823 13.6579 8.61514 13.8056C8.34836 13.953 8.06403 14.0282 7.77803 14.0283C6.52572 14.014 5.56754 12.7578 5.56591 11.0365Z" fill="white" stroke="white" stroke-width="0.2"/>
</svg>
