<svg width="58" height="58" viewBox="0 0 58 58" fill="none" xmlns="http://www.w3.org/2000/svg">
<path d="M40.3333 51.6665V6.33317H6.33329V48.8332C6.33329 49.5846 6.6318 50.3053 7.16316 50.8366C7.69451 51.368 8.41518 51.6665 9.16663 51.6665H40.3333ZM48.8333 57.3332H9.16663C6.91229 57.3332 4.75028 56.4376 3.15622 54.8436C1.56216 53.2495 0.666626 51.0875 0.666626 48.8332V3.49984C0.666626 2.74839 0.965137 2.02772 1.49649 1.49637C2.02784 0.965015 2.74851 0.666504 3.49996 0.666504H43.1666C43.9181 0.666504 44.6387 0.965015 45.1701 1.49637C45.7015 2.02772 46 2.74839 46 3.49984V23.3332H57.3333V48.8332C57.3333 51.0875 56.4378 53.2495 54.8437 54.8436C53.2496 56.4376 51.0876 57.3332 48.8333 57.3332ZM46 28.9998V48.8332C46 49.5846 46.2985 50.3053 46.8298 50.8366C47.3612 51.368 48.0818 51.6665 48.8333 51.6665C49.5847 51.6665 50.3054 51.368 50.8368 50.8366C51.3681 50.3053 51.6666 49.5846 51.6666 48.8332V28.9998H46ZM12 11.9998H29V28.9998H12V11.9998ZM17.6666 17.6665V23.3332H23.3333V17.6665H17.6666ZM12 31.8332H34.6666V37.4998H12V31.8332ZM12 40.3332H34.6666V45.9998H12V40.3332Z" fill="#FF5170"/>
</svg>
