<svg width="16" height="16" viewBox="0 0 16 16" fill="none" xmlns="http://www.w3.org/2000/svg">
<path d="M7.99935 11.9998C5.79021 11.9998 3.99935 10.209 3.99935 7.99984C3.99935 5.7907 5.79021 3.99984 7.99935 3.99984C10.2085 3.99984 11.9993 5.7907 11.9993 7.99984C11.9993 10.209 10.2085 11.9998 7.99935 11.9998ZM7.99935 10.6665C9.47208 10.6665 10.666 9.47257 10.666 7.99984C10.666 6.52708 9.47208 5.33317 7.99935 5.33317C6.52659 5.33317 5.33268 6.52708 5.33268 7.99984C5.33268 9.47257 6.52659 10.6665 7.99935 10.6665ZM7.33268 0.666504H8.66602V2.6665H7.33268V0.666504ZM7.33268 13.3332H8.66602V15.3332H7.33268V13.3332ZM2.3425 3.28579L3.2853 2.34298L4.69952 3.7572L3.75671 4.7L2.3425 3.28579ZM11.2991 12.2425L12.242 11.2996L13.6562 12.7139L12.7134 13.6567L11.2991 12.2425ZM12.7134 2.34298L13.6562 3.28579L12.242 4.7L11.2991 3.7572L12.7134 2.34298ZM3.75671 11.2996L4.69952 12.2425L3.2853 13.6567L2.3425 12.7139L3.75671 11.2996ZM15.3327 7.33317V8.6665H13.3327V7.33317H15.3327ZM2.66602 7.33317V8.6665H0.666016V7.33317H2.66602Z" fill="#392C7D"/>
</svg>
