<svg width="14" height="14" viewBox="0 0 14 14" fill="none" xmlns="http://www.w3.org/2000/svg">
<path d="M5.66732 3.66683C5.66732 6.24416 7.75665 8.3335 10.334 8.3335C11.6396 8.3335 12.82 7.7973 13.667 6.93316C13.6673 6.9555 13.6673 6.97783 13.6673 7.00016C13.6673 10.682 10.6825 13.6668 7.00065 13.6668C3.31875 13.6668 0.333984 10.682 0.333984 7.00016C0.333984 3.31826 3.31875 0.333496 7.00065 0.333496C7.02298 0.333496 7.04532 0.333496 7.06765 0.333823C6.20352 1.18082 5.66732 2.36121 5.66732 3.66683ZM1.66732 7.00016C1.66732 9.9457 4.05513 12.3335 7.00065 12.3335C9.03952 12.3335 10.8112 11.1894 11.7087 9.50823C11.2637 9.61263 10.803 9.66683 10.334 9.66683C7.02025 9.66683 4.33398 6.98056 4.33398 3.66683C4.33398 3.19782 4.3882 2.73714 4.49258 2.29216C2.81139 3.18965 1.66732 4.9613 1.66732 7.00016Z" fill="#392C7D"/>
</svg>
