<svg width="14" height="17" viewBox="0 0 14 17" fill="none" xmlns="http://www.w3.org/2000/svg">
<path fill-rule="evenodd" clip-rule="evenodd" d="M4.27363 16.0972L4.54954 14.2858L3.93492 14.271H1L3.03967 0.903988C3.04602 0.863511 3.06656 0.825936 3.09656 0.799206C3.12671 0.772476 3.16513 0.757812 3.20533 0.757812H8.15405C9.79708 0.757812 10.9308 1.11111 11.5227 1.80853C11.8002 2.13571 11.977 2.4777 12.0626 2.85391C12.1523 3.24875 12.1537 3.72042 12.0662 4.29581L12.0599 4.33766V4.70638L12.3374 4.8689C12.5711 4.99705 12.7568 5.14369 12.8993 5.31155C13.1366 5.59138 13.2902 5.94696 13.355 6.36838C13.4221 6.80187 13.4 7.31784 13.2902 7.90193C13.1635 8.57369 12.9588 9.15885 12.6823 9.63755C12.4282 10.0787 12.1042 10.4446 11.7196 10.7281C11.3523 10.9976 10.9161 11.2021 10.4228 11.333C9.94471 11.4616 9.3997 11.5265 8.80192 11.5265H8.41681C8.14149 11.5265 7.87401 11.629 7.66401 11.8128C7.45343 12.0003 7.31422 12.2566 7.27151 12.5369L7.2424 12.7001L6.75487 15.8929L6.73285 16.01C6.72694 16.0471 6.71689 16.0656 6.70211 16.0781C6.68896 16.0896 6.67004 16.0972 6.65157 16.0972H4.27363Z" fill="#28356A"/>
<path fill-rule="evenodd" clip-rule="evenodd" d="M12.598 4.37988C12.5834 4.47749 12.5664 4.57723 12.5475 4.67972C11.8949 8.14302 9.66207 9.33946 6.81049 9.33946H5.35855C5.00979 9.33946 4.71585 9.60111 4.66161 9.95669L3.70769 16.2108C3.67237 16.4443 3.84646 16.6546 4.07433 16.6546H6.64956C6.95443 16.6546 7.21349 16.4257 7.26152 16.1148L7.28679 15.9797L7.77166 12.7994L7.80284 12.625C7.85028 12.3131 8.10993 12.0839 8.4148 12.0839H8.79991C11.2949 12.0839 13.2481 11.037 13.819 8.00723C14.0574 6.7416 13.934 5.68477 13.3029 4.94152C13.112 4.71745 12.8751 4.5314 12.598 4.37988Z" fill="#2F80ED"/>
<path fill-rule="evenodd" clip-rule="evenodd" d="M11.9101 4.09854C11.8103 4.06845 11.7074 4.04126 11.6019 4.01667C11.4958 3.99269 11.3872 3.97146 11.2753 3.95283C10.8839 3.88745 10.4549 3.85645 9.99541 3.85645H6.11662C6.021 3.85645 5.93026 3.87875 5.84913 3.91907C5.67017 4.00797 5.53732 4.18301 5.5051 4.39731L4.67989 9.79923L4.65625 9.95671C4.71049 9.60112 5.00442 9.33947 5.35318 9.33947H6.80512C9.6567 9.33947 11.8895 8.14242 12.5421 4.67973C12.5616 4.57724 12.578 4.4775 12.5926 4.3799C12.4276 4.28932 12.2488 4.21188 12.0562 4.14589C12.0086 4.12955 11.9596 4.11382 11.9101 4.09854Z" fill="#28356A"/>
<path fill-rule="evenodd" clip-rule="evenodd" d="M5.50972 4.39752C5.54194 4.18322 5.67479 4.00818 5.85376 3.91989C5.93548 3.87942 6.02562 3.85712 6.12124 3.85712H10C10.4595 3.85712 10.8885 3.88827 11.28 3.95365C11.3918 3.97213 11.5004 3.99351 11.6066 4.0175C11.7121 4.04193 11.8149 4.06928 11.9147 4.09921C11.9642 4.11449 12.0132 4.13037 12.0613 4.14611C12.2538 4.21209 12.4328 4.29014 12.5979 4.38011C12.792 3.10027 12.5962 2.22887 11.9268 1.4398C11.1886 0.570996 9.85654 0.199219 8.15189 0.199219H3.20302C2.85485 0.199219 2.55781 0.460868 2.50402 0.817065L0.442775 14.3216C0.402136 14.5887 0.601491 14.8297 0.862176 14.8297H3.91739L5.50972 4.39752Z" fill="#28356A"/>
</svg>
