<svg width="21" height="21" viewBox="0 0 21 21" fill="none" xmlns="http://www.w3.org/2000/svg">
<path d="M11.2333 5.3957C10.7995 4.96185 10.0961 4.96185 9.66221 5.3957L4.89233 10.1656C4.45842 10.5995 4.45842 11.303 4.89233 11.7369L9.66221 16.5068C10.0961 16.9407 10.7995 16.9407 11.2333 16.5068C11.6672 16.0729 11.6672 15.3696 11.2333 14.9357L8.03455 11.7369C7.60064 11.303 7.60064 10.5995 8.03455 10.1656L11.2333 6.96681C11.6672 6.53296 11.6672 5.82955 11.2333 5.3957Z" fill="url(#paint0_linear_3916_31124)"/>
<path opacity="0.7" d="M15.2179 5.3957L10.448 10.1656C10.0141 10.5995 10.0141 11.303 10.448 11.7369L15.2179 16.5068C15.6517 16.9407 16.3552 16.9407 16.789 16.5068C17.2228 16.0729 17.2228 15.3696 16.789 14.9357L13.5903 11.7369C13.1563 11.303 13.1563 10.5995 13.5903 10.1656L16.789 6.96681C17.2228 6.53296 17.2228 5.82955 16.789 5.3957C16.3552 4.96185 15.6517 4.96185 15.2179 5.3957Z" fill="url(#paint1_linear_3916_31124)"/>
<defs>
<linearGradient id="paint0_linear_3916_31124" x1="6.62074" y1="0.913091" x2="14.07" y2="4.70406" gradientUnits="userSpaceOnUse">
<stop stop-color="#392C7D"/>
<stop offset="1" stop-color="#314CAD"/>
</linearGradient>
<linearGradient id="paint1_linear_3916_31124" x1="12.1764" y1="0.913091" x2="19.6257" y2="4.70405" gradientUnits="userSpaceOnUse">
<stop stop-color="#392C7D"/>
<stop offset="1" stop-color="#314CAD"/>
</linearGradient>
</defs>
</svg>
